<?xml version="1.0" encoding="UTF-8"?>
<svg version="1.1" xmlns="http://www.w3.org/2000/svg" width="512" height="512">
<path d="M0 0 C0.98584076 0.00054382 1.97168152 0.00108765 2.98739624 0.00164795 C62.44855067 0.15190407 118.04065754 21.03681408 164.1875 58.375 C162.98686908 61.97689277 161.78935363 62.71805857 158.8125 65 C157.90628906 65.70511719 157.00007813 66.41023438 156.06640625 67.13671875 C155.11636719 67.87535156 154.16632813 68.61398438 153.1875 69.375 C151.37013578 70.8481862 149.55762831 72.32738379 147.75 73.8125 C146.83347656 74.56402344 145.91695313 75.31554687 144.97265625 76.08984375 C144.05355469 76.84394531 143.13445312 77.59804687 142.1875 78.375 C140.35439838 79.87528317 138.52106573 81.37528408 136.6875 82.875 C135.78 83.6175 134.8725 84.36 133.9375 85.125 C103.6875 109.875 103.6875 109.875 100.9609375 112.10546875 C99.04901888 113.6700106 97.13758975 115.23515075 95.2265625 116.80078125 C94.26492188 117.58839844 93.30328125 118.37601562 92.3125 119.1875 C91.44882812 119.89519531 90.58515625 120.60289063 89.6953125 121.33203125 C88.45394531 122.34330078 88.45394531 122.34330078 87.1875 123.375 C86.35992187 124.14199219 85.53234375 124.90898438 84.6796875 125.69921875 C82.1875 127.375 82.1875 127.375 79.7890625 127.3515625 C76.52183224 126.12512472 73.57619617 124.48597959 70.5625 122.75 C35.88542893 103.63631324 -5.4157741 101.06097244 -43.16455078 111.57714844 C-81.3238439 123.07489599 -113.2424713 149.25932953 -132.55004883 184.00195312 C-152.12495835 220.65432873 -155.76394656 262.70994818 -143.8125 302.375 C-130.70244651 341.94848543 -103.00044152 373.71980718 -65.81640625 392.49609375 C-30.15583749 409.67986869 11.30536661 411.9308847 48.80810547 399.50683594 C78.22680029 389.06383605 103.90210368 370.75622176 122.1875 345.375 C122.62191406 344.77816406 123.05632812 344.18132812 123.50390625 343.56640625 C130.84822913 333.37204763 137.1978547 322.3439359 141.1875 310.375 C96.3075 310.375 51.4275 310.375 5.1875 310.375 C5.1875 276.715 5.1875 243.055 5.1875 208.375 C86.6975 208.375 168.2075 208.375 252.1875 208.375 C254.47976773 220.60042792 256.33003526 231.29925627 256.390625 243.5078125 C256.39768463 244.45416061 256.40474426 245.40050873 256.41201782 246.37553406 C256.63991099 285.89152112 256.63991099 285.89152112 253.1875 302.375 C252.88948486 303.83728027 252.88948486 303.83728027 252.58544922 305.32910156 C242.46482806 353.7109774 220.5483123 397.69928269 186.1875 433.375 C185.55537598 434.03435547 184.92325195 434.69371094 184.27197266 435.37304688 C175.12752521 444.86130305 165.83015991 453.6012044 155.1875 461.375 C154.03644983 462.23306152 152.88540823 463.09113451 151.734375 463.94921875 C143.54474019 469.98677396 135.04211724 475.36957302 126.1875 480.375 C125.48028809 480.7771875 124.77307617 481.179375 124.04443359 481.59375 C97.84126059 496.34636115 68.90138186 505.88031173 39.1875 510.375 C38.06214844 510.55232666 36.93679688 510.72965332 35.77734375 510.91235352 C24.24455142 512.56000003 12.82405018 512.73279066 1.1875 512.6875 C0.19238403 512.68534485 -0.80273193 512.6831897 -1.82800293 512.68096924 C-16.67301025 512.62937644 -31.20937027 512.30457523 -45.8125 509.375 C-46.80443359 509.17632324 -47.79636719 508.97764648 -48.81835938 508.77294922 C-92.05232784 499.78270811 -132.28394194 481.29739833 -165.8125 452.375 C-166.55757813 451.74078125 -167.30265625 451.1065625 -168.0703125 450.453125 C-181.57529833 438.64198485 -194.24668743 425.89139772 -204.8125 411.375 C-205.66899066 410.22505169 -206.52576433 409.07531411 -207.3828125 407.92578125 C-213.42284209 399.73565742 -218.80617614 391.23120382 -223.8125 382.375 C-224.2146875 381.66778809 -224.616875 380.96057617 -225.03125 380.23193359 C-237.7185914 357.69703464 -246.1719835 333.43201763 -251.5625 308.1875 C-251.76133789 307.26267822 -251.96017578 306.33785645 -252.16503906 305.38500977 C-255.45691369 289.17831484 -256.1878085 273.24462105 -256.125 256.75 C-256.12284485 255.73209381 -256.1206897 254.71418762 -256.11846924 253.66543579 C-256.06879854 239.05636477 -255.81790191 224.72424147 -252.8125 210.375 C-252.61382324 209.40014648 -252.41514648 208.42529297 -252.21044922 207.42089844 C-244.48727689 170.50008511 -230.14259057 135.86257753 -207.8125 105.375 C-207.39645508 104.80201172 -206.98041016 104.22902344 -206.55175781 103.63867188 C-200.22921718 94.98466304 -193.25176229 87.08046612 -185.8125 79.375 C-184.83869385 78.36034668 -184.83869385 78.36034668 -183.84521484 77.32519531 C-174.71579191 67.8555853 -165.43610596 59.13487789 -154.8125 51.375 C-153.66144983 50.51693848 -152.51040823 49.65886549 -151.359375 48.80078125 C-143.16974019 42.76322604 -134.66711724 37.38042698 -125.8125 32.375 C-125.10528809 31.9728125 -124.39807617 31.570625 -123.66943359 31.15625 C-97.52250209 16.4353033 -68.50055577 6.73434742 -38.8125 2.375 C-37.61004639 2.19839844 -36.40759277 2.02179687 -35.16870117 1.83984375 C-23.45224155 0.2358565 -11.81347836 -0.02463344 0 0 Z " fill="#508EF7" transform="translate(255.8125,-0.375)"/>
<path d="M0 0 C0.98584076 0.00054382 1.97168152 0.00108765 2.98739624 0.00164795 C62.44855067 0.15190407 118.04065754 21.03681408 164.1875 58.375 C162.98686908 61.97689277 161.78935363 62.71805857 158.8125 65 C157.90628906 65.70511719 157.00007813 66.41023438 156.06640625 67.13671875 C155.11636719 67.87535156 154.16632813 68.61398438 153.1875 69.375 C151.37013578 70.8481862 149.55762831 72.32738379 147.75 73.8125 C146.83347656 74.56402344 145.91695313 75.31554687 144.97265625 76.08984375 C144.05355469 76.84394531 143.13445312 77.59804687 142.1875 78.375 C140.35439838 79.87528317 138.52106573 81.37528408 136.6875 82.875 C135.78 83.6175 134.8725 84.36 133.9375 85.125 C103.6875 109.875 103.6875 109.875 100.9609375 112.10546875 C99.04901888 113.6700106 97.13758975 115.23515075 95.2265625 116.80078125 C94.26492188 117.58839844 93.30328125 118.37601562 92.3125 119.1875 C91.44882812 119.89519531 90.58515625 120.60289063 89.6953125 121.33203125 C88.45394531 122.34330078 88.45394531 122.34330078 87.1875 123.375 C86.35992187 124.14199219 85.53234375 124.90898438 84.6796875 125.69921875 C82.1875 127.375 82.1875 127.375 79.7890625 127.3515625 C76.52183224 126.12512472 73.57619617 124.48597959 70.5625 122.75 C35.88542893 103.63631324 -5.4157741 101.06097244 -43.16455078 111.57714844 C-81.3238439 123.07489599 -113.2424713 149.25932953 -132.55004883 184.00195312 C-152.70503783 221.74047887 -154.29080652 261.63548032 -143.8125 302.375 C-143.14250399 305.04084453 -142.47772053 307.70795844 -141.8125 310.375 C-142.67230469 311.04144531 -143.53210938 311.70789063 -144.41796875 312.39453125 C-151.13020802 317.62016077 -157.73287762 322.93956395 -164.20263672 328.46264648 C-168.09127393 331.77845161 -172.04415403 334.99552223 -176.046875 338.171875 C-185.31862109 345.55784222 -194.47676441 353.08700927 -203.625 360.625 C-204.69089355 361.50152222 -204.69089355 361.50152222 -205.77832031 362.39575195 C-208.9289087 364.98834722 -212.07227454 367.58763231 -215.1875 370.22265625 C-216.156875 371.03605469 -217.12625 371.84945313 -218.125 372.6875 C-219.35669922 373.73357422 -219.35669922 373.73357422 -220.61328125 374.80078125 C-222.79648492 376.36353627 -224.23773434 376.81981721 -226.8125 377.375 C-241.09494325 349.16548768 -250.78161098 319.78062604 -254.8125 288.375 C-254.89982895 287.70779434 -254.9871579 287.04058868 -255.07713318 286.35316467 C-255.77337491 280.63679524 -255.98706164 274.99757368 -256.015625 269.2421875 C-256.02621445 267.82266533 -256.02621445 267.82266533 -256.03701782 266.37446594 C-256.26491099 226.85847888 -256.26491099 226.85847888 -252.8125 210.375 C-252.61382324 209.40014648 -252.41514648 208.42529297 -252.21044922 207.42089844 C-244.48727689 170.50008511 -230.14259057 135.86257753 -207.8125 105.375 C-207.39645508 104.80201172 -206.98041016 104.22902344 -206.55175781 103.63867188 C-200.22921718 94.98466304 -193.25176229 87.08046612 -185.8125 79.375 C-184.83869385 78.36034668 -184.83869385 78.36034668 -183.84521484 77.32519531 C-174.71579191 67.8555853 -165.43610596 59.13487789 -154.8125 51.375 C-153.66144983 50.51693848 -152.51040823 49.65886549 -151.359375 48.80078125 C-143.16974019 42.76322604 -134.66711724 37.38042698 -125.8125 32.375 C-125.10528809 31.9728125 -124.39807617 31.570625 -123.66943359 31.15625 C-97.52250209 16.4353033 -68.50055577 6.73434742 -38.8125 2.375 C-37.61004639 2.19839844 -36.40759277 2.02179687 -35.16870117 1.83984375 C-23.45224155 0.2358565 -11.81347836 -0.02463344 0 0 Z " fill="#F14335" transform="translate(255.8125,-0.375)"/>
<path d="M0 0 C0.40089844 0.98097656 0.80179687 1.96195312 1.21484375 2.97265625 C16.8212162 40.35601415 45.83999514 70.40451439 83.53515625 85.91015625 C123.31201832 101.56504331 165.64633137 99.97346768 204.73632812 83.08984375 C207.9520399 81.54164084 210.96079324 79.67971195 213.96582031 77.7578125 C216 77 216 77 218.1237793 77.76538086 C220.38119999 79.25084299 222.46760159 80.85413968 224.5625 82.5625 C225.88121094 83.63371094 225.88121094 83.63371094 227.2265625 84.7265625 C228.59941406 85.85191406 228.59941406 85.85191406 230 87 C230.89460938 87.72960937 231.78921875 88.45921875 232.7109375 89.2109375 C235.47725356 91.46996351 238.23891056 93.73459001 241 96 C242.83310162 97.50028317 244.66643427 99.00028408 246.5 100.5 C263 114 263 114 279.5 127.5 C280.84964844 128.60408203 280.84964844 128.60408203 282.2265625 129.73046875 C284.13848112 131.2950106 286.04991025 132.86015075 287.9609375 134.42578125 C288.92257812 135.21339844 289.88421875 136.00101563 290.875 136.8125 C291.73867188 137.52019531 292.60234375 138.22789062 293.4921875 138.95703125 C295.98312014 140.98624896 298.48811818 142.99679676 301 145 C299.66152325 148.10929517 298.37917792 149.76253974 295.61328125 151.69921875 C294.93023926 152.18148926 294.24719727 152.66375977 293.54345703 153.16064453 C292.80724121 153.66450684 292.07102539 154.16836914 291.3125 154.6875 C290.5479248 155.21714355 289.78334961 155.74678711 288.99560547 156.29248047 C281.84748016 161.19451714 274.55195715 165.74948524 267 170 C266.29713867 170.39928711 265.59427734 170.79857422 264.87011719 171.20996094 C238.66238009 185.96693291 209.72021556 195.50435366 180 200 C178.87464844 200.17732666 177.74929688 200.35465332 176.58984375 200.53735352 C165.05705142 202.18500003 153.63655018 202.35779066 142 202.3125 C141.00488403 202.31034485 140.00976807 202.3081897 138.98449707 202.30596924 C124.13948975 202.25437644 109.60312973 201.92957523 95 199 C94.00806641 198.80132324 93.01613281 198.60264648 91.99414062 198.39794922 C48.76017216 189.40770811 8.52855806 170.92239833 -25 142 C-26.11761719 141.04867187 -26.11761719 141.04867187 -27.2578125 140.078125 C-40.76279833 128.26698485 -53.43418743 115.51639772 -64 101 C-64.85649066 99.85005169 -65.71326433 98.70031411 -66.5703125 97.55078125 C-71.01242753 91.52472817 -75.13176398 85.34756225 -79 78.9375 C-79.37398926 78.31818604 -79.74797852 77.69887207 -80.13330078 77.06079102 C-82.0640711 73.79439981 -83.70501869 70.56794331 -85 67 C-83.72769531 66.01773438 -83.72769531 66.01773438 -82.4296875 65.015625 C-76.16099549 60.1480001 -69.99285239 55.20469995 -64 50 C-58.84611112 45.52560214 -53.57238373 41.25655427 -48.1796875 37.07421875 C-44.2012953 33.97694697 -40.32881734 30.77993297 -36.5 27.5 C-31.52456473 23.23869137 -26.4348729 19.15843499 -21.25463867 15.14916992 C-18.21859091 12.78675988 -15.24363355 10.37809346 -12.33203125 7.86328125 C-11.44547852 7.09757812 -11.44547852 7.09757812 -10.54101562 6.31640625 C-9.41278968 5.33478593 -8.29009743 4.3467585 -7.17382812 3.3515625 C-3.32591986 0 -3.32591986 0 0 0 Z " fill="#28B446" transform="translate(115,310)"/>
<path d="M0 0 C6.5269359 4.76896463 12.76566596 9.85731405 19 15 C20.83264019 16.50084678 22.66596746 18.000855 24.5 19.5 C41 33 41 33 57.5 46.5 C58.40621094 47.24121094 59.31242187 47.98242188 60.24609375 48.74609375 C62.09337522 50.25798227 63.93971875 51.77101749 65.78515625 53.28515625 C66.70167969 54.03667969 67.61820312 54.78820312 68.5625 55.5625 C69.45582031 56.30371094 70.34914063 57.04492188 71.26953125 57.80859375 C73.11974478 59.29352907 75.01594603 60.72260003 76.94921875 62.09765625 C78.33560547 63.10119141 78.33560547 63.10119141 79.75 64.125 C81.01070312 64.99511719 81.01070312 64.99511719 82.296875 65.8828125 C84 68 84 68 83.88671875 71.22265625 C83.59410156 72.46917969 83.30148438 73.71570313 83 75 C82.8541748 75.64678711 82.70834961 76.29357422 82.55810547 76.95996094 C82.24433174 78.3421625 81.92152362 79.72233689 81.59082031 81.10058594 C74.79890411 109.5362425 76.77536623 135.91071773 84 164 C84.66999601 166.66584453 85.33477947 169.33295844 86 172 C85.14019531 172.66644531 84.28039062 173.33289063 83.39453125 174.01953125 C76.68229198 179.24516077 70.07962238 184.56456395 63.60986328 190.08764648 C59.72122607 193.40345161 55.76834597 196.62052223 51.765625 199.796875 C42.49387891 207.18284222 33.33573559 214.71200927 24.1875 222.25 C23.12160645 223.12652222 23.12160645 223.12652222 22.03417969 224.02075195 C18.8835913 226.61334722 15.74022546 229.21263231 12.625 231.84765625 C11.655625 232.66105469 10.68625 233.47445312 9.6875 234.3125 C8.45580078 235.35857422 8.45580078 235.35857422 7.19921875 236.42578125 C5.01601508 237.98853627 3.57476566 238.44481721 1 239 C-13.28244325 210.79048768 -22.96911098 181.40562604 -27 150 C-27.13099342 148.99919151 -27.13099342 148.99919151 -27.26463318 147.97816467 C-27.96087491 142.26179524 -28.17456164 136.62257368 -28.203125 130.8671875 C-28.21018463 129.92083939 -28.21724426 128.97449127 -28.22451782 127.99946594 C-28.45241099 88.48347888 -28.45241099 88.48347888 -25 72 C-24.80132324 71.02514648 -24.60264648 70.05029297 -24.39794922 69.04589844 C-19.58696759 46.04688364 -13.20388156 19.80582234 0 0 Z " fill="#FABA00" transform="translate(28,138)"/>
</svg>
