<?xml version="1.0" encoding="UTF-8"?>
<svg version="1.1" xmlns="http://www.w3.org/2000/svg" width="512" height="512">
<path d="M0 0 C2.46066467 1.93012771 4.77385431 4.01273107 7.06982422 6.13500977 C9.995804 8.2908164 13.23519456 8.62655946 16.75512695 9.37670898 C17.47700195 9.93358398 18.19887695 10.49045898 18.94262695 11.06420898 C20.72892496 12.6456674 20.72892496 12.6456674 23.31762695 12.25170898 C25.7959388 11.57480369 25.7959388 11.57480369 27.19262695 9.81420898 C28.75512695 8.37670898 28.75512695 8.37670898 31.75512695 8.00170898 C34.75512695 8.37670898 34.75512695 8.37670898 36.69262695 9.50170898 C37.75512695 11.37670898 37.75512695 11.37670898 37.63012695 14.31420898 C36.75512695 17.37670898 36.75512695 17.37670898 35.19262695 19.43920898 C33.58023057 21.31241686 33.58023057 21.31241686 33.31762695 23.81420898 C33.56313824 26.55540912 33.56313824 26.55540912 35.75512695 28.75170898 C37.75512695 31.37670898 37.75512695 31.37670898 37.59106445 34.59545898 C37.80315215 39.48357538 39.52608944 41.68617253 42.38012695 45.50170898 C53.75512695 61.56955219 53.75512695 61.56955219 53.75512695 69.37670898 C64.31512695 69.37670898 74.87512695 69.37670898 85.75512695 69.37670898 C85.72032227 66.34225586 85.68551758 63.30780273 85.6496582 60.18139648 C85.62624142 57.23251282 85.6080369 54.28363964 85.59033203 51.3347168 C85.57527408 49.29007304 85.55482339 47.24546143 85.52880859 45.20092773 C85.49229384 42.25683646 85.47537045 39.31317341 85.4621582 36.36889648 C85.44667435 35.45929169 85.43119049 34.54968689 85.41523743 33.61251831 C85.41368418 27.71439664 86.11305331 23.27335743 90.25512695 18.73217773 C94.94404095 15.08117438 97.89995854 14.25243687 103.75663757 14.22953796 C105.01132339 14.22238266 106.26600922 14.21522736 107.55871582 14.20785522 C108.95190405 14.20501497 110.34509254 14.20230324 111.73828125 14.19970703 C113.20355897 14.19344139 114.6688351 14.1867945 116.1341095 14.17979431 C120.94917699 14.15876074 125.76424478 14.14839153 130.5793457 14.13842773 C132.23808115 14.1343797 133.89681642 14.13026276 135.55555153 14.12607765 C143.34995203 14.10702631 151.14434306 14.09279603 158.93876237 14.08446568 C167.92945403 14.07469772 176.91989921 14.04838961 185.91050404 14.00796479 C192.86350037 13.97777721 199.81642615 13.96299424 206.76948673 13.95968467 C210.92030036 13.95733688 215.07085065 13.94841224 219.22159386 13.9232235 C223.12950031 13.8998918 227.03697099 13.89572978 230.94492912 13.90598488 C232.37514956 13.90647914 233.80539181 13.90019098 235.23554611 13.88642883 C250.2351935 13.75022688 250.2351935 13.75022688 255.75512695 18.37670898 C261.14874164 24.60914882 260.32191181 31.87222342 260.27270508 39.75390625 C260.2781309 41.21317237 260.28525615 42.67243301 260.29394531 44.13168335 C260.31212553 48.08003045 260.30513375 52.02795782 260.29242897 55.97631192 C260.2822756 60.11482929 260.29170095 64.25331161 260.29797363 68.39183044 C260.30524244 75.33957345 260.29568169 82.28714615 260.27661133 89.23486328 C260.2548354 97.26082673 260.26190211 105.28638382 260.28391695 113.31233746 C260.30208265 120.21191364 260.30462384 127.11136767 260.29416227 134.01096004 C260.28793484 138.1280721 260.28707111 142.24499327 260.30030823 146.36209297 C260.31188357 150.23235556 260.30381086 154.10209524 260.2807312 157.97230148 C260.27545338 159.39044134 260.27694207 160.80862539 260.28578186 162.22674751 C260.35920099 175.20373671 260.35920099 175.20373671 255.75512695 180.37670898 C255.19876776 182.48972106 255.19876776 182.48972106 255.28637695 184.50561523 C255.27219727 185.23071289 255.25801758 185.95581055 255.2434082 186.70288086 C255.24727539 187.44086914 255.25114258 188.17885742 255.25512695 188.93920898 C255.29418625 196.43208385 255.29418625 196.43208385 253.09887695 200.27905273 C248.42363622 204.46339319 243.25661281 204.63426973 237.18920898 204.69555664 C236.09061806 204.71062508 236.09061806 204.71062508 234.96983337 204.72599792 C232.56754282 204.75669908 230.16536304 204.7738283 227.76293945 204.79077148 C226.08998673 204.80949368 224.41704335 204.82906788 222.74411011 204.84945679 C218.35479246 204.90067297 213.96544423 204.94035478 209.57598877 204.9776001 C204.30197177 205.02476523 199.02810526 205.08631784 193.75421143 205.14544678 C185.7545777 205.23353083 177.75497094 205.30338673 169.75512695 205.37670898 C169.75512695 219.23670898 169.75512695 233.09670898 169.75512695 247.37670898 C171.40512695 248.03670898 173.05512695 248.69670898 174.75512695 249.37670898 C176.76192168 250.59265544 178.73895058 251.85838233 180.69262695 253.15795898 C181.52852104 253.71240189 181.52852104 253.71240189 182.38130188 254.27804565 C184.17641917 255.47195865 185.96622539 256.6735058 187.75512695 257.87670898 C188.36560883 258.28576477 188.9760907 258.69482056 189.60507202 259.11627197 C198.23445206 264.90366274 206.7417953 270.74498623 214.75512695 277.37670898 C215.31409668 277.83174805 215.87306641 278.28678711 216.44897461 278.75561523 C245.85950737 302.76421341 262.51170924 333.73433986 266.54418945 371.75268555 C268.66438495 398.12752486 265.36299667 423.63257836 248.50512695 445.00170898 C222.11498772 475.91461751 180.58384366 485.77464839 141.68203735 489.17175293 C136.83379733 489.51124954 131.99277102 489.57853941 127.1340332 489.61499023 C126.04831024 489.62478409 124.96258728 489.63457794 123.84396362 489.64466858 C82.59494633 489.93964793 42.20440312 487.51406929 2.75512695 474.37670898 C1.64927246 474.01480469 0.54341797 473.65290039 -0.59594727 473.2800293 C-30.98761946 463.28986429 -62.72319087 452.64604778 -89.24487305 434.37670898 C-92.28387535 432.35070745 -92.8605456 432.13646947 -96.2644043 432.13842773 C-97.03977539 432.12231445 -97.81514648 432.10620117 -98.61401367 432.08959961 C-100.23112225 432.07279512 -101.84839358 432.06741669 -103.46557617 432.07397461 C-107.62833539 431.96723719 -110.01977263 431.49586513 -113.7722168 429.50952148 C-117.34302132 424.98537421 -117.06190778 421.17650612 -116.99487305 415.56420898 C-117.02229354 408.7593564 -117.45376546 402.94410348 -119.24487305 396.37670898 C-119.4753418 393.40014648 -119.4753418 393.40014648 -119.43237305 390.75170898 C-119.42592773 389.87256836 -119.41948242 388.99342773 -119.4128418 388.08764648 C-119.22974239 385.13250718 -118.74910234 382.29243689 -118.24487305 379.37670898 C-119.40011475 379.39241943 -120.55535645 379.40812988 -121.74560547 379.42431641 C-126.04126992 379.47871267 -130.33690405 379.51309432 -134.6328125 379.54150391 C-136.4902865 379.55656845 -138.34772506 379.57702407 -140.20507812 379.60302734 C-142.87858844 379.63951357 -145.55162749 379.65645868 -148.2253418 379.66967773 C-149.05261276 379.68516159 -149.87988373 379.70064545 -150.73222351 379.71659851 C-156.44399781 379.71825689 -159.78933403 378.71403825 -164.0300293 374.67749023 C-166.04927855 370.85325291 -165.68035568 366.71270687 -165.68432617 362.48413086 C-165.71236328 361.46222656 -165.71236328 361.46222656 -165.7409668 360.41967773 C-165.74281982 359.81148193 -165.74467285 359.20328613 -165.74658203 358.57666016 C-166.18008415 356.08853128 -166.18008415 356.08853128 -168.2446909 353.2353754 C-170.48514556 349.36530253 -170.80601813 345.85019688 -170.74607849 341.43809509 C-170.75438009 340.28391196 -170.75438009 340.28391196 -170.76284939 339.10641199 C-170.77639667 336.54375124 -170.76151963 333.98207448 -170.74658203 331.41943359 C-170.75036734 329.5759388 -170.75586913 327.73244685 -170.76295471 325.88896179 C-170.77689793 320.89314366 -170.76574787 315.89767037 -170.7492435 310.90187144 C-170.73537777 305.67030117 -170.74185474 300.4387506 -170.74537659 295.20716858 C-170.74807726 286.42337496 -170.73461452 277.63971811 -170.71142578 268.85595703 C-170.6848087 258.70333238 -170.68307213 248.55093626 -170.69481415 238.39828867 C-170.70559562 228.62670275 -170.69940247 218.85519943 -170.68525887 209.08362007 C-170.67950312 204.92704883 -170.6795785 200.77053811 -170.68432426 196.61396599 C-170.68909885 191.71946905 -170.67897232 186.82522217 -170.65736961 181.93077278 C-170.65180846 180.13529427 -170.65133029 178.3397917 -170.65632248 176.54431152 C-170.66228544 174.09204391 -170.64975129 171.64053825 -170.6325531 169.18833923 C-170.64156817 168.12446964 -170.64156817 168.12446964 -170.65076536 167.03910774 C-170.59178817 162.40959088 -169.52204783 159.37257231 -167.24487305 155.37670898 C-165.8866397 151.30200895 -167.12122995 149.9682619 -168.93237305 146.12670898 C-181.58525154 118.21670597 -179.45739684 86.9667782 -169.33081055 58.67358398 C-164.50695862 45.96252401 -157.82169222 33.93157685 -149.24487305 23.37670898 C-148.8365625 22.86446777 -148.42825195 22.35222656 -148.00756836 21.82446289 C-139.10868043 10.69920381 -129.28943686 1.10652814 -117.24487305 -6.62329102 C-116.37862305 -7.19692383 -115.51237305 -7.77055664 -114.61987305 -8.36157227 C-108.56866047 -12.15198459 -102.34713561 -14.93953687 -95.68237305 -17.43579102 C-94.91546143 -17.72583008 -94.1485498 -18.01586914 -93.35839844 -18.31469727 C-60.19508543 -30.22974416 -27.25497707 -20.1114593 0 0 Z " fill="#0403CA" transform="translate(211.244873046875,22.623291015625)"/>
<path d="M0 0 C2.46066467 1.93012771 4.77385431 4.01273107 7.06982422 6.13500977 C9.995804 8.2908164 13.23519456 8.62655946 16.75512695 9.37670898 C17.47700195 9.93358398 18.19887695 10.49045898 18.94262695 11.06420898 C20.72892496 12.6456674 20.72892496 12.6456674 23.31762695 12.25170898 C25.7959388 11.57480369 25.7959388 11.57480369 27.19262695 9.81420898 C28.75512695 8.37670898 28.75512695 8.37670898 31.75512695 8.00170898 C34.75512695 8.37670898 34.75512695 8.37670898 36.69262695 9.50170898 C37.75512695 11.37670898 37.75512695 11.37670898 37.63012695 14.31420898 C36.75512695 17.37670898 36.75512695 17.37670898 35.19262695 19.43920898 C33.58023057 21.31241686 33.58023057 21.31241686 33.31762695 23.81420898 C33.56313824 26.55540912 33.56313824 26.55540912 35.75512695 28.75170898 C37.75512695 31.37670898 37.75512695 31.37670898 37.59106445 34.59545898 C37.80315215 39.48357538 39.52608944 41.68617253 42.38012695 45.50170898 C53.75512695 61.56955219 53.75512695 61.56955219 53.75512695 69.37670898 C52.81255948 69.37890882 52.81255948 69.37890882 51.85095024 69.38115311 C36.55194282 69.41822572 21.25319041 69.47724623 5.95437431 69.56061172 C-1.44407636 69.60039923 -8.84242071 69.63279312 -16.2409668 69.64770508 C-22.69052931 69.66072318 -29.13985785 69.68769159 -35.58928859 69.73132205 C-39.0033928 69.75393371 -42.41720847 69.76961987 -45.8313942 69.76859283 C-49.64552262 69.77095419 -53.45873432 69.79796969 -57.27270508 69.83081055 C-58.40127426 69.82578018 -59.52984344 69.82074982 -60.69261169 69.81556702 C-66.85130993 69.8977044 -70.56802376 70.23424813 -75.24487305 74.37670898 C-79.54617003 79.27128831 -79.3933823 83.97383601 -79.39204407 90.22550964 C-79.39572076 91.14122767 -79.39939744 92.0569457 -79.40318555 93.00041276 C-79.41423577 96.08182376 -79.4180685 99.16320105 -79.421875 102.24462891 C-79.42813864 104.44881294 -79.43478535 106.65299592 -79.44178772 108.85717773 C-79.45920668 114.85527616 -79.46975196 120.85336661 -79.47799325 126.85148406 C-79.48314157 130.59791881 -79.48921739 134.34435108 -79.49550438 138.09078407 C-79.51237504 148.46641175 -79.52700973 158.84203784 -79.53425312 169.21767712 C-79.53616297 171.90976653 -79.53808331 174.60185593 -79.54003906 177.29394531 C-79.54076467 178.29758532 -79.54076467 178.29758532 -79.54150494 179.32150088 C-79.54980284 190.15709013 -79.57513585 200.99256891 -79.60761974 211.82810994 C-79.64070943 222.9566013 -79.65837099 234.08505271 -79.66189736 245.21359712 C-79.66424929 251.46029903 -79.67322852 257.70682634 -79.69835854 263.95348167 C-79.72162199 269.83120732 -79.72587925 275.70864316 -79.71559715 281.58640289 C-79.71510127 283.74226914 -79.72143721 285.89814957 -79.7351532 288.05397224 C-79.75285002 291.00065873 -79.74577642 293.94630274 -79.73262024 296.89299011 C-79.74358949 297.74310439 -79.75455873 298.59321866 -79.76586038 299.46909398 C-79.70461747 305.16339469 -78.5486028 309.66212868 -75.24487305 314.37670898 C-69.70605415 318.76735828 -64.84164734 318.97692492 -57.9362793 318.98608398 C-56.96955795 319.00262024 -56.00283661 319.01915649 -55.00682068 319.03619385 C-51.94027243 319.08450817 -48.87421952 319.10600819 -45.80737305 319.12670898 C-43.71945772 319.15488248 -41.63156531 319.18481183 -39.54370117 319.21655273 C-34.4441326 319.29026288 -29.34483633 319.33993878 -24.24487305 319.37670898 C-24.66639648 320.05217773 -25.08791992 320.72764648 -25.5222168 321.42358398 C-26.07006836 322.31561523 -26.61791992 323.20764648 -27.18237305 324.12670898 C-27.72764648 325.00842773 -28.27291992 325.89014648 -28.8347168 326.79858398 C-31.42801138 331.53978739 -31.52075965 336.3079161 -31.80737305 341.62670898 C-31.85055664 342.37178711 -31.89374023 343.11686523 -31.93823242 343.88452148 C-32.0438403 345.71505798 -32.14481506 347.54586074 -32.24487305 349.37670898 C-48.63866994 349.44672164 -65.0324185 349.49965905 -81.42632866 349.5321455 C-89.03793198 349.54762897 -96.64944254 349.56874658 -104.26098633 349.60302734 C-110.89350607 349.63288461 -117.52595864 349.65227322 -124.15854371 349.65897447 C-127.67202258 349.66289301 -131.18530925 349.67213241 -134.69872665 349.69389915 C-138.61632703 349.71797413 -142.53373762 349.71868135 -146.45141602 349.71728516 C-147.62241852 349.72807098 -148.79342102 349.73885681 -149.99990845 349.74996948 C-151.06284119 349.74584549 -152.12577393 349.7417215 -153.22091675 349.73747253 C-154.14824049 349.74023791 -155.07556423 349.74300329 -156.03098869 349.74585247 C-156.76157053 349.62403512 -157.49215237 349.50221777 -158.24487305 349.37670898 C-160.63721111 345.78820189 -160.52789402 343.2310971 -160.50556946 339.08874512 C-160.50939501 338.34100846 -160.51322055 337.5932718 -160.51716202 336.82287645 C-160.52750453 334.31015075 -160.52349757 331.79765302 -160.51953125 329.28491211 C-160.523877 327.48640226 -160.52905968 325.68789427 -160.53501892 323.88938904 C-160.54843394 318.99900456 -160.54898489 314.10869725 -160.54645562 309.21829796 C-160.54538775 305.14000018 -160.55026447 301.06171813 -160.55506104 296.98342371 C-160.56616457 287.36532069 -160.56658867 277.74725672 -160.56054688 268.12915039 C-160.5545032 258.1958252 -160.56682618 248.26264151 -160.58811694 238.32934046 C-160.6057088 229.80954918 -160.61173819 221.28980304 -160.6084792 212.76999426 C-160.60666257 207.67764281 -160.60934035 202.58539232 -160.62319374 197.49305725 C-160.63572849 192.70616854 -160.63386947 187.91950118 -160.62078285 183.13261604 C-160.61840811 181.3729603 -160.62118369 179.61328918 -160.62940598 177.85365105 C-160.63979956 175.4570647 -160.63183315 173.06123136 -160.61909485 170.66467285 C-160.62646913 169.9634142 -160.63384342 169.26215554 -160.64144117 168.53964663 C-160.60941173 165.68812855 -160.55308193 163.81319036 -158.88165092 161.44613171 C-156.44844879 159.8563487 -154.46816392 159.97566008 -151.58007812 159.94433594 C-150.4191011 159.92454178 -149.25812408 159.90474762 -148.06196594 159.88435364 C-146.18217293 159.87476875 -146.18217293 159.87476875 -144.2644043 159.86499023 C-142.98127853 159.84703903 -141.69815277 159.82908783 -140.37614441 159.81059265 C-136.96824246 159.76308162 -133.56040676 159.73327991 -130.15228271 159.70715332 C-126.67324742 159.677353 -123.19444044 159.63082097 -119.71557617 159.58569336 C-112.8921385 159.49964816 -106.06862483 159.43230848 -99.24487305 159.37670898 C-99.24487305 156.73670898 -99.24487305 154.09670898 -99.24487305 151.37670898 C-106.96424611 151.33027714 -114.68360461 151.29478476 -122.40308571 151.27308464 C-125.98793105 151.26266731 -129.57268052 151.24854582 -133.1574707 151.22583008 C-136.61988639 151.2040282 -140.08221012 151.19212494 -143.54468918 151.1869545 C-145.50220525 151.18148514 -147.45968457 151.16588395 -149.41714478 151.15011597 C-150.61793671 151.1499649 -151.81872864 151.14981384 -153.0559082 151.1496582 C-154.10847809 151.14521698 -155.16104797 151.14077576 -156.24551392 151.13619995 C-159.50904837 151.39789236 -162.1909117 152.22462133 -165.24487305 153.37670898 C-179.32933567 127.32045312 -180.89582192 97.59113089 -172.83862305 69.33764648 C-167.79982659 52.65335829 -160.27555565 36.95136821 -149.24487305 23.37670898 C-148.8365625 22.86446777 -148.42825195 22.35222656 -148.00756836 21.82446289 C-139.10868043 10.69920381 -129.28943686 1.10652814 -117.24487305 -6.62329102 C-116.37862305 -7.19692383 -115.51237305 -7.77055664 -114.61987305 -8.36157227 C-108.56866047 -12.15198459 -102.34713561 -14.93953687 -95.68237305 -17.43579102 C-94.91546143 -17.72583008 -94.1485498 -18.01586914 -93.35839844 -18.31469727 C-60.19508543 -30.22974416 -27.25497707 -20.1114593 0 0 Z " fill="#D9D9FE" transform="translate(211.244873046875,22.623291015625)"/>
<path d="M0 0 C1.29990372 -0.00412399 2.59980743 -0.00824799 3.93910217 -0.01249695 C5.38276879 -0.00187943 6.82643332 0.009025 8.27009583 0.02018738 C9.78776025 0.02103344 11.30542589 0.02055891 12.8230896 0.01885986 C16.94685454 0.01799768 21.07035871 0.03565946 25.19406295 0.05658174 C29.50221552 0.07531137 33.81037379 0.07709604 38.11856079 0.08065796 C46.27835753 0.08998936 54.43803395 0.11461793 62.59777766 0.14470643 C71.88664991 0.17821639 81.17552785 0.19472787 90.46444547 0.20979273 C109.57396554 0.24116655 128.68337355 0.2939483 147.7928009 0.36076355 C147.79866714 1.52507904 147.80453339 2.68939453 147.81057739 3.88899231 C147.86780854 14.86550309 147.94057244 25.84181583 148.02851582 36.81812477 C148.07322922 42.46106664 148.11248339 48.10393615 148.13923645 53.74699402 C148.16525948 59.19361003 148.20565524 64.63994773 148.25598717 70.08639145 C148.27266257 72.16354789 148.28417264 74.24075247 148.29041481 76.31796646 C148.30004839 79.22917558 148.32809937 82.13967157 148.36042786 85.05070496 C148.35899277 85.90810272 148.35755768 86.76550049 148.3560791 87.64888 C148.43363333 92.59216807 148.89203375 96.17261616 151.7928009 100.36076355 C156.08330181 104.00661276 159.14497222 104.86524066 164.71614075 104.90666199 C165.71231918 104.9221685 165.71231918 104.9221685 166.72862244 104.93798828 C168.90391281 104.96727237 171.07826696 104.96891226 173.2537384 104.97013855 C174.76975768 104.98513009 176.28576068 105.00185929 177.80174255 105.02024841 C181.77683793 105.0638255 185.75171302 105.08389935 189.727005 105.09898376 C193.78943353 105.11858988 197.85162536 105.16055585 201.91389465 105.2006073 C209.87349696 105.27580505 217.83292777 105.32409085 225.7928009 105.36076355 C225.7928009 111.63076355 225.7928009 117.90076355 225.7928009 124.36076355 C223.8128009 125.35076355 223.8128009 125.35076355 221.7928009 126.36076355 C221.78915527 127.60468872 221.78550964 128.84861389 221.78175354 130.13023376 C221.74483998 141.84319659 221.68710712 153.55589563 221.60889816 165.26865768 C221.56935995 171.2905818 221.53720253 177.31235829 221.52180481 183.33439636 C221.50668014 189.14414419 221.47230893 194.95348635 221.42449188 200.76305389 C221.40963483 202.98141711 221.40175742 205.19983823 221.40091705 207.41825104 C221.39855869 210.52160079 221.37156958 213.62381906 221.33869934 216.72697449 C221.34624489 218.10801361 221.34624489 218.10801361 221.35394287 219.51695251 C221.25238446 225.69911386 221.25238446 225.69911386 219.00508118 228.93449402 C215.55516615 231.15867363 212.05342 230.85234617 208.0896759 230.75138855 C207.25188599 230.74572876 206.41409607 230.74006897 205.55091858 230.73423767 C202.88095924 230.71188684 200.21235303 230.66169453 197.5428009 230.61076355 C195.73032032 230.5906968 193.91781865 230.57244633 192.1053009 230.55607605 C187.66728132 230.51202648 183.23027035 230.44300921 178.7928009 230.36076355 C178.67742981 229.68892029 178.56205872 229.01707703 178.44319153 228.32487488 C178.28012512 227.43566345 178.11705872 226.54645203 177.9490509 225.6302948 C177.71411926 224.31315491 177.71411926 224.31315491 177.47444153 222.96940613 C176.06660991 217.58162647 173.01123966 213.9087743 168.49201965 210.7552948 C161.89438487 207.0922223 156.22823546 206.30011616 148.9178009 208.04826355 C146.7928009 208.36076355 146.7928009 208.36076355 144.9803009 207.04826355 C143.7928009 205.36076355 143.7928009 205.36076355 143.7928009 203.36076355 C135.29917632 198.76005023 127.27635602 196.66360567 117.7928009 199.36076355 C117.47569153 198.9018573 117.15858215 198.44295105 116.8318634 197.97013855 C112.77372431 192.63402195 108.36952069 189.80926134 101.7928009 188.36076355 C100.23383884 188.31816433 98.67381357 188.30727261 97.11433411 188.32145691 C96.30478775 188.32713181 95.49524139 188.3328067 94.66116333 188.33865356 C93.73632393 188.34959801 93.73632393 188.34959801 92.7928009 188.36076355 C92.78471405 187.79192947 92.7766272 187.2230954 92.76829529 186.63702393 C92.68181458 180.68266048 92.58229543 174.72861341 92.47541809 168.77458191 C92.43728459 166.55653727 92.40240529 164.33843409 92.3709259 162.12028503 C92.32493443 158.92028466 92.26699761 155.72068197 92.2068634 152.5209198 C92.19531219 151.53930374 92.18376099 150.55768768 92.17185974 149.54632568 C92.02510816 142.60158396 91.70497042 135.67028771 88.1678009 129.54826355 C83.55195446 125.29682604 79.05126137 123.13977094 72.7303009 122.86076355 C67.05319813 123.12197994 63.42550853 124.80327614 59.28889465 128.82170105 C54.49527019 134.20257865 54.64867463 138.89325276 54.66682434 145.81364441 C54.66495621 146.66451126 54.66308807 147.51537811 54.66116333 148.39202881 C54.65716402 150.23738236 54.65508492 152.08274084 54.65470123 153.92809868 C54.65128201 157.85124425 54.62991815 161.77422463 54.60947037 165.69731236 C54.57145473 173.00010977 54.54018907 180.30272888 54.54231262 187.6056366 C54.54309908 192.68738466 54.51976713 197.76852532 54.4804306 202.85011482 C54.46996181 204.78575982 54.46845302 206.72147483 54.47608185 208.6571331 C54.48569125 211.36492191 54.46454716 214.07086601 54.43635559 216.77848816 C54.44655228 217.57709259 54.45674896 218.37569702 54.46725464 219.19850159 C54.3937607 223.13560035 53.94544442 225.15272086 51.59390259 228.35771179 C48.48737668 230.57917066 47.09878285 230.98799678 43.33161926 230.99186707 C42.26378708 231.00440018 41.1959549 231.01693329 40.09576416 231.02984619 C38.95293472 231.01658798 37.81010529 231.00332977 36.63264465 230.9896698 C35.45061966 230.99208176 34.26859467 230.99449371 33.05075073 230.99697876 C30.55514669 230.99600035 28.05952094 230.98260841 25.56404114 230.95768738 C21.74045792 230.92335475 17.91918218 230.93703732 14.09553528 230.95646667 C11.67039522 230.94956908 9.24526112 230.93989749 6.82014465 230.9271698 C5.10286415 230.9346096 5.10286415 230.9346096 3.35089111 230.94219971 C2.28621109 230.92636337 1.22153107 230.91052704 0.12458801 230.89421082 C-0.81075272 230.88801224 -1.74609344 230.88181366 -2.70977783 230.87542725 C-6.14194085 230.1681338 -7.11309534 229.18131278 -9.2071991 226.36076355 C-9.59776929 223.2659178 -9.74320856 220.52842528 -9.70840454 217.43399048 C-9.71393894 216.5220573 -9.71947333 215.61012412 -9.72517544 214.6705566 C-9.73881317 211.60795115 -9.72379568 208.54615623 -9.70890808 205.48356628 C-9.71269009 203.2908239 -9.71818915 201.09808391 -9.72528076 198.90534973 C-9.73926716 192.94473027 -9.72804348 186.98439844 -9.71156955 181.02379489 C-9.69774346 174.79383527 -9.70417627 168.56389276 -9.70770264 162.33392334 C-9.71040649 151.87187767 -9.69700072 141.40993933 -9.67375183 130.94792175 C-9.64982502 120.17964932 -9.64274971 109.41152849 -9.65324402 98.64323425 C-9.66586365 85.67086712 -9.66336924 72.69859257 -9.64758492 59.72622871 C-9.6418162 54.76893031 -9.64191473 49.81168264 -9.64665031 44.85438347 C-9.65141102 39.0209837 -9.64135599 33.18779463 -9.61969566 27.35443497 C-9.61411551 25.20938515 -9.61367368 23.06431514 -9.61864853 20.91926384 C-9.62457263 17.99945713 -9.61215164 15.08030093 -9.59487915 12.16055298 C-9.6008892 11.30433851 -9.60689924 10.44812405 -9.61309141 9.56596369 C-9.55069853 3.79751269 -9.55069853 3.79751269 -7.85681796 1.64379478 C-5.32211966 -0.32762852 -3.17185878 -0.00774254 0 0 Z " fill="#D6D6FE" transform="translate(150.2071990966797,101.63923645019531)"/>
<path d="M0 0 C4.01367676 1.54231004 7.34967143 3.39464272 10.9375 5.78125 C11.77339409 6.3356929 11.77339409 6.3356929 12.62617493 6.90133667 C14.42129222 8.09524966 16.21109843 9.29679682 18 10.5 C18.91572281 11.11358368 18.91572281 11.11358368 19.84994507 11.73956299 C28.47932511 17.52695375 36.98666834 23.36827725 45 30 C45.55896973 30.45503906 46.11793945 30.91007812 46.69384766 31.37890625 C76.10438042 55.38750443 92.75658228 86.35763087 96.7890625 124.37597656 C98.90925799 150.75081588 95.60786972 176.25586937 78.75 197.625 C52.35986077 228.53790852 10.82871671 238.3979394 -28.0730896 241.79504395 C-32.92132962 242.13454055 -37.76235593 242.20183042 -42.62109375 242.23828125 C-43.70681671 242.2480751 -44.79253967 242.25786896 -45.91116333 242.26795959 C-87.16018062 242.56293895 -127.55072383 240.13736031 -167 227 C-168.10585449 226.6380957 -169.21170898 226.27619141 -170.35107422 225.90332031 C-200.74274641 215.9131553 -232.47831782 205.2693388 -259 187 C-262.03900231 184.97399846 -262.61567256 184.75976048 -266.01953125 184.76171875 C-266.79490234 184.74560547 -267.57027344 184.72949219 -268.36914062 184.71289062 C-269.9862492 184.69608614 -271.60352053 184.69070771 -273.22070312 184.69726562 C-277.38346234 184.59052821 -279.77489958 184.11915615 -283.52734375 182.1328125 C-287.09814827 177.60866522 -286.81703474 173.79979713 -286.75 168.1875 C-286.7773997 161.38780691 -287.18544667 155.55922195 -289 149 C-290.40810555 136.05274377 -285.61202876 124.99127478 -281 113 C-254.93 113 -228.86 113 -202 113 C-201.01 117.95 -201.01 117.95 -200 123 C-198.68226746 126.4527632 -198.68226746 126.4527632 -197.0625 129.4375 C-196.55847656 130.42621094 -196.05445313 131.41492188 -195.53515625 132.43359375 C-194.18045906 134.69831653 -192.86322517 136.18126976 -191 138 C-191 138.66 -191 139.32 -191 140 C-192.12535156 140.43699219 -192.12535156 140.43699219 -193.2734375 140.8828125 C-208.58158395 146.86870486 -208.58158395 146.86870486 -219 159 C-219.51299774 164.14679697 -219.66628033 168.58748569 -217.4375 173.3125 C-201.3720013 191.02574216 -173.88803366 195.10892651 -151 197 C-147.31880603 197.15265382 -143.6411155 197.18711953 -139.95703125 197.203125 C-138.3896949 197.21167511 -138.3896949 197.21167511 -136.79069519 197.22039795 C-134.5828857 197.22980341 -132.37506246 197.23636411 -130.16723633 197.24023438 C-126.86708396 197.24984111 -123.56758217 197.28086662 -120.26757812 197.3125 C-100.69331246 197.41003368 -81.83249388 195.46080032 -63 190 C-61.92363281 189.69191406 -60.84726562 189.38382813 -59.73828125 189.06640625 C-49.57480165 185.93017247 -38.31080482 181.32251374 -32.125 172.25 C-30.34229996 167.09997767 -29.88037255 162.82032737 -31.92578125 157.66796875 C-37.84864537 147.41215388 -50.42629234 142.44364632 -61.3984375 139.31640625 C-63.2572904 138.84354016 -65.12761916 138.41608463 -67 138 C-66.32836667 134.21174476 -65.29339171 130.69770535 -64.0390625 127.0625 C-63.64976562 125.91910156 -63.26046875 124.77570313 -62.859375 123.59765625 C-62.04687344 121.22957418 -61.23183584 118.86236048 -60.4140625 116.49609375 C-56.51136541 105.0062454 -53.76536697 93.79502979 -52.8125 81.6875 C-52.6897168 80.27307617 -52.6897168 80.27307617 -52.56445312 78.83007812 C-52.36803567 76.55394648 -52.17991194 74.27748491 -52 72 C-50.86046875 71.9906543 -49.7209375 71.98130859 -48.546875 71.97167969 C-44.28981472 71.93158945 -40.03346273 71.86577905 -35.77685547 71.79248047 C-33.94003447 71.76438069 -32.10309503 71.74311182 -30.26611328 71.72900391 C-27.61429686 71.70742103 -24.96388815 71.66069501 -22.3125 71.609375 C-21.50071289 71.60814636 -20.68892578 71.60691772 -19.85253906 71.60565186 C-14.22284973 71.46336907 -9.51417741 70.5411574 -5 67 C0.2873723 60.94042388 -0.39808219 52.89487197 -0.390625 45.3125 C-0.37408875 44.01425293 -0.35755249 42.71600586 -0.34051514 41.37841797 C-0.29709492 37.95244407 -0.27689964 34.52672496 -0.26177979 31.1005249 C-0.24211629 27.59420868 -0.20015727 24.088164 -0.16015625 20.58203125 C-0.0851297 13.72145717 -0.03467226 6.86089362 0 0 Z " fill="#DDDDFE" transform="translate(381,270)"/>
<path d="M0 0 C1.24370865 -0.00708481 2.4874173 -0.01416962 3.76881409 -0.02146912 C5.15467871 -0.01917508 6.54054298 -0.01666536 7.92640686 -0.01396179 C9.37994652 -0.01830702 10.83348389 -0.02348953 12.28701782 -0.02944946 C16.24154584 -0.04287141 20.19597848 -0.04341459 24.15052485 -0.04088616 C27.4483809 -0.03981857 30.74621747 -0.04469438 34.04406935 -0.04949158 C41.82257158 -0.0605979 49.60102553 -0.06101792 57.37953186 -0.05497742 C65.41162868 -0.04893601 73.44355041 -0.06125025 81.47561735 -0.08254749 C88.3648309 -0.10014466 95.25398862 -0.10616782 102.14322382 -0.10290974 C106.26085419 -0.10109366 110.37835968 -0.10376519 114.49596977 -0.11762428 C118.36769785 -0.13016743 122.23915237 -0.12829215 126.11087608 -0.11521339 C127.53350668 -0.11284032 128.95615632 -0.11560836 130.37876511 -0.12383652 C132.31750797 -0.13424304 134.25632826 -0.12443483 136.19506836 -0.11352539 C137.28110824 -0.11369313 138.36714811 -0.11386087 139.48609829 -0.1140337 C142.161026 0.26069641 142.161026 0.26069641 144.01008892 1.4234972 C145.63985429 4.02503268 145.53867192 5.96823352 145.54197693 9.03010559 C145.5504364 10.23311813 145.55889587 11.43613068 145.56761169 12.67559814 C145.56177865 14.01060621 145.55563413 15.34561294 145.54920959 16.68061829 C145.5532742 18.08504647 145.55861546 19.48947147 145.56513977 20.89389038 C145.57883256 24.7099877 145.57350675 28.52584209 145.56400251 32.34194374 C145.55641603 36.33240548 145.56344871 40.32284618 145.56816101 44.31330872 C145.57362152 51.01504762 145.56641924 57.7166874 145.55213928 64.41841125 C145.53581215 72.17049907 145.54110045 79.9223502 145.5576185 87.67443228 C145.57122498 94.32588527 145.57315715 100.97726694 145.56530249 107.62872934 C145.56062134 111.60325406 145.56001318 115.57766746 145.56991196 119.55218506 C145.57856723 123.28851865 145.5725864 127.02454658 145.55522919 130.76084709 C145.55125659 132.13348317 145.5524116 133.5061449 145.55901718 134.87877083 C145.56719139 136.74960039 145.55513223 138.62048606 145.54197693 140.49128723 C145.54084585 141.53915657 145.53971478 142.58702591 145.53854942 143.66664886 C145.161026 146.26069641 145.161026 146.26069641 144.01008892 148.09789562 C141.35307342 149.76878507 139.32363236 149.63540143 136.19506836 149.63491821 C134.94853989 149.64193253 133.70201141 149.64894684 132.41770935 149.65617371 C131.03388817 149.64874582 129.65006858 149.64101467 128.26625061 149.63301086 C126.81094096 149.63543845 125.35563297 149.63915744 123.90032959 149.64407349 C119.94586479 149.65348996 115.99164716 149.64405127 112.03720164 149.63074136 C107.90347292 149.61943934 103.76975658 149.62353334 99.63601685 149.62548828 C92.6946864 149.62637156 85.75345357 149.6152831 78.81214905 149.59687805 C70.77947153 149.57570157 62.74693694 149.57220211 54.71423715 149.57844001 C46.99510616 149.58412817 39.27602565 149.57849504 31.55690193 149.56726646 C28.26785412 149.56261404 24.97883712 149.56174939 21.68978691 149.56385231 C17.81972306 149.56573147 13.94980538 149.55766022 10.07977486 149.54179192 C8.65673044 149.53753785 7.23367123 149.53670601 5.81062317 149.53948212 C3.87374205 149.54268825 1.93685235 149.53242614 0 149.52139282 C-1.08566285 149.51933995 -2.1713257 149.51728708 -3.28988743 149.515172 C-5.838974 149.26069641 -5.838974 149.26069641 -7.838974 147.26069641 C-8.09065628 144.75566864 -8.09065628 144.75566864 -8.09294128 141.52888489 C-8.09858093 140.30897354 -8.10422058 139.08906219 -8.11003113 137.83218384 C-8.10614218 136.47306765 -8.10204582 135.11395204 -8.09776306 133.75483704 C-8.10047192 132.32923198 -8.10403225 130.90362833 -8.10838318 129.47802734 C-8.11752207 125.60000126 -8.11395679 121.72208127 -8.10762501 117.84405327 C-8.10257275 113.79172854 -8.1072543 109.73941309 -8.11039734 105.68708801 C-8.11403925 98.88104109 -8.109232 92.07503753 -8.09971619 85.26899719 C-8.08883119 77.39255565 -8.09235661 69.51621764 -8.103369 61.63977861 C-8.11243548 54.88561378 -8.11373029 48.13148018 -8.10849166 41.37731123 C-8.10536843 37.33966849 -8.10497225 33.30207446 -8.11156464 29.26443481 C-8.11732821 25.46908518 -8.11335947 21.67386944 -8.10177612 17.87853432 C-8.09912422 16.48290034 -8.09990363 15.08725516 -8.10430145 13.6916256 C-8.10973722 11.79192371 -8.10172355 9.8921973 -8.09294128 7.99250793 C-8.09218723 6.9276693 -8.09143318 5.86283066 -8.09065628 4.76572418 C-7.56889293 -0.427457 -4.42523855 0.00836764 0 0 Z " fill="#FDD7D8" transform="translate(315.83897399902344,47.73930358886719)"/>
<path d="M0 0 C5.94 0 11.88 0 18 0 C18.00546844 2.81096191 18.00546844 2.81096191 18.01104736 5.67871094 C18.04798209 23.335699 18.10550162 40.99251406 18.18390274 58.64936829 C18.22368268 67.72702321 18.25608047 76.80459158 18.27099609 85.88232422 C18.28401804 93.79608737 18.31099652 101.70965998 18.35461307 109.62331581 C18.37721575 113.81212511 18.3929114 118.0006995 18.39188385 122.1895752 C18.39113652 126.13610812 18.40911593 130.082122 18.44116783 134.02852058 C18.44965362 135.47321262 18.45142572 136.91796297 18.44580269 138.36266899 C18.41908734 146.28462412 18.52557072 152.30743191 23 159 C28.5388189 163.3906493 33.4032257 163.60021594 40.30859375 163.609375 C41.27531509 163.62591125 42.24203644 163.64244751 43.23805237 163.65948486 C46.30460062 163.70779918 49.37065353 163.72929921 52.4375 163.75 C54.52541532 163.7781735 56.61330774 163.80810285 58.70117188 163.83984375 C63.80074045 163.91355389 68.90003671 163.9632298 74 164 C73.57847656 164.67546875 73.15695313 165.3509375 72.72265625 166.046875 C72.17480469 166.93890625 71.62695312 167.8309375 71.0625 168.75 C70.51722656 169.63171875 69.97195312 170.5134375 69.41015625 171.421875 C66.81686166 176.1630784 66.7241134 180.93120712 66.4375 186.25 C66.39431641 186.99507812 66.35113281 187.74015625 66.30664062 188.5078125 C66.20103275 190.338349 66.10005799 192.16915176 66 194 C49.60620311 194.07001265 33.21245455 194.12295006 16.81854439 194.15543652 C9.20694106 194.17091999 1.59543051 194.1920376 -6.01611328 194.22631836 C-12.64863302 194.25617562 -19.28108559 194.27556423 -25.91367066 194.28226548 C-29.42714953 194.28618403 -32.94043621 194.29542343 -36.45385361 194.31719017 C-40.37145398 194.34126515 -44.28886457 194.34197236 -48.20654297 194.34057617 C-49.96304672 194.35675491 -49.96304672 194.35675491 -51.7550354 194.3732605 C-52.81796814 194.36913651 -53.88090088 194.36501251 -54.9760437 194.36076355 C-55.90336744 194.36352893 -56.83069118 194.36629431 -57.78611565 194.36914349 C-58.51669748 194.24732614 -59.24727932 194.12550879 -60 194 C-62.39233807 190.4114929 -62.28302097 187.85438811 -62.26069641 183.71203613 C-62.26452196 182.96429947 -62.26834751 182.21656281 -62.27228898 181.44616747 C-62.28263148 178.93344177 -62.27862452 176.42094404 -62.2746582 173.90820312 C-62.27900395 172.10969328 -62.28418664 170.31118528 -62.29014587 168.51268005 C-62.30356089 163.62229558 -62.30411184 158.73198827 -62.30158257 153.84158897 C-62.30051471 149.76329119 -62.30539142 145.68500915 -62.310188 141.60671473 C-62.32129152 131.98861171 -62.32171562 122.37054774 -62.31567383 112.75244141 C-62.30963015 102.81911621 -62.32195313 92.88593252 -62.3432439 82.95263147 C-62.36083575 74.43284019 -62.36686514 65.91309406 -62.36360615 57.39328527 C-62.36178952 52.30093382 -62.36446731 47.20868333 -62.37832069 42.11634827 C-62.39085544 37.32945956 -62.38899643 32.5427922 -62.37590981 27.75590706 C-62.37353506 25.99625131 -62.37631064 24.2365802 -62.38453293 22.47694206 C-62.39492651 20.08035572 -62.38696011 17.68452237 -62.3742218 15.28796387 C-62.38528323 14.23607589 -62.38528323 14.23607589 -62.39656812 13.16293764 C-62.36453868 10.31141956 -62.30820888 8.43648138 -60.63677788 6.06942272 C-58.20357574 4.47963972 -56.22329088 4.59895109 -53.33520508 4.56762695 C-51.59373955 4.53793571 -51.59373955 4.53793571 -49.8170929 4.50764465 C-47.93729988 4.49805977 -47.93729988 4.49805977 -46.01953125 4.48828125 C-44.73640549 4.47033005 -43.45327972 4.45237885 -42.13127136 4.43388367 C-38.72336941 4.38637263 -35.31553371 4.35657093 -31.90740967 4.33044434 C-28.42837437 4.30064402 -24.94956739 4.25411199 -21.47070312 4.20898438 C-14.64726545 4.12293917 -7.82375178 4.05559949 -1 4 C-0.67 2.68 -0.34 1.36 0 0 Z " fill="#FCD2B9" transform="translate(113,178)"/>
<path d="M0 0 C3.78992851 1.72269478 5.5239839 3.13345563 7 7 C7.2784729 10.02459717 7.2784729 10.02459717 7.31884766 13.60449219 C7.32889328 14.25856552 7.3389389 14.91263885 7.34928894 15.58653259 C7.38008234 17.73997145 7.39714496 19.8932862 7.4140625 22.046875 C7.43277729 23.54332545 7.45235094 25.03976538 7.4727478 26.53619385 C7.52404238 30.46850378 7.56368228 34.40084791 7.60089111 38.33331299 C7.64094761 42.34859662 7.69203243 46.36373831 7.7421875 50.37890625 C7.83891508 58.25250714 7.92332987 66.12617837 8 74 C10.90073181 74.67801034 10.90073181 74.67801034 14 75 C16.2236068 73.0745356 16.2236068 73.0745356 17 70 C18 67 18 67 20 65 C26.49785081 65.10829751 29.42754536 66.42754536 34 71 C35.43450027 73.86900055 35.37911083 76.73472913 35.62109375 79.90625 C35.83318777 82.21311098 35.83318777 82.21311098 38 84 C40.5 84.33333333 40.5 84.33333333 43 84 C45.46526886 81.53473114 45.95153693 79.28518427 47 76 C48 75 48 75 51.25 74.75 C56.3737204 75.09158136 58.58793315 76.6663813 62.25 80.125 C64.33049482 83.54295578 64.55452316 86.07466457 64.7265625 90.01171875 C64.82769853 92.23048226 64.82769853 92.23048226 67 94 C69.58354218 94.16687448 69.58354218 94.16687448 72 94 C72.433125 92.906875 72.86625 91.81375 73.3125 90.6875 C75.71127648 85.26274401 75.71127648 85.26274401 78 84 C83.68053457 84.09162153 86.91958696 84.79957481 91 89 C96.93951309 98.3161928 93.94166443 121.52198777 91.8125 132.125 C88.92727362 144.82442354 83.73055291 157.14824142 79.19140625 169.328125 C77.11308309 174.92072475 75.07564495 180.52386797 73.15234375 186.171875 C72.75909912 187.32268555 72.36585449 188.47349609 71.96069336 189.65917969 C70.45725436 194.88740312 69.9080879 200.07616357 69.68359375 205.49609375 C69.64169922 206.46611328 69.59980469 207.43613281 69.55664062 208.43554688 C69.51732422 209.42619141 69.47800781 210.41683594 69.4375 211.4375 C69.37272461 212.96407227 69.37272461 212.96407227 69.30664062 214.52148438 C69.20131418 217.01421028 69.09918328 219.50702338 69 222 C56.34483209 223.73031806 43.89860302 224.31613226 31.13012695 224.26074219 C28.17313447 224.24994756 25.21674076 224.26074767 22.25976562 224.2734375 C12.31407788 224.27967911 2.7738724 224.03039393 -7 222 C-7.01458252 221.410979 -7.02916504 220.82195801 -7.04418945 220.21508789 C-7.11953764 217.49696198 -7.21590384 214.77995058 -7.3125 212.0625 C-7.33505859 211.13630859 -7.35761719 210.21011719 -7.38085938 209.25585938 C-7.95521869 194.37473167 -14.83174093 184.18153279 -24.7890625 173.4765625 C-34.26835751 162.85841226 -37.52974693 154.18683782 -37.44604492 140.12963867 C-37.43750582 137.93899376 -37.46639455 135.75093696 -37.49804688 133.56054688 C-37.49965865 132.15364661 -37.4990818 130.74674177 -37.49609375 129.33984375 C-37.49887329 127.44286743 -37.49887329 127.44286743 -37.50170898 125.50756836 C-36.57914882 119.05772805 -32.54960891 115.28134076 -27.8125 111.125 C-26.49185547 109.95324219 -26.49185547 109.95324219 -25.14453125 108.7578125 C-23 107 -23 107 -22 107 C-21.97309156 109.62506802 -21.95320596 112.24986173 -21.9375 114.875 C-21.92912109 115.62136719 -21.92074219 116.36773437 -21.91210938 117.13671875 C-21.88671875 122.7734375 -21.88671875 122.7734375 -23 125 C-23.16670273 128.04173894 -23.16670273 128.04173894 -23 131 C-21.87465895 132.35618499 -21.87465895 132.35618499 -18.9375 132.0625 C-17.4834375 132.0315625 -17.4834375 132.0315625 -16 132 C-12.9700124 125.28906252 -12.57821034 119.64872047 -12.63110352 112.33911133 C-12.62733704 111.19505325 -12.62357056 110.05099518 -12.61968994 108.87226868 C-12.61327585 106.39947642 -12.61357016 103.92665949 -12.61987495 101.45386696 C-12.62900217 97.54091057 -12.61874338 93.62843153 -12.60325623 89.71549988 C-12.56718366 80.00279458 -12.56083458 70.29009782 -12.56335449 60.57733154 C-12.56521522 52.35819379 -12.55139071 44.13941774 -12.51487541 35.92035484 C-12.50403172 32.06415092 -12.51618937 28.20843744 -12.52870178 24.35224915 C-12.51980046 21.99239614 -12.50972716 19.63254716 -12.49829102 17.27270508 C-12.50803452 16.19986267 -12.51777802 15.12702026 -12.52781677 14.02166748 C-12.45737885 6.75393313 -12.45737885 6.75393313 -10.09385681 2.85795593 C-6.68191513 -0.16958504 -4.52524632 -0.35492128 0 0 Z " fill="#FDD6D7" transform="translate(226,234)"/>
<path d="M0 0 C1.29990372 -0.00412399 2.59980743 -0.00824799 3.93910217 -0.01249695 C5.38276879 -0.00187943 6.82643332 0.009025 8.27009583 0.02018738 C9.78776025 0.02103344 11.30542589 0.02055891 12.8230896 0.01885986 C16.94685454 0.01799768 21.07035871 0.03565946 25.19406295 0.05658174 C29.50221552 0.07531137 33.81037379 0.07709604 38.11856079 0.08065796 C46.27835753 0.08998936 54.43803395 0.11461793 62.59777766 0.14470643 C73.62286981 0.18447987 84.64799475 0.20069646 95.67314053 0.21821308 C113.0464508 0.24643827 130.41950717 0.30620045 147.7928009 0.36076355 C147.7928009 30.72076355 147.7928009 61.08076355 147.7928009 92.36076355 C147.4628009 92.36076355 147.1328009 92.36076355 146.7928009 92.36076355 C146.7928009 74.54076355 146.7928009 56.72076355 146.7928009 38.36076355 C95.6428009 38.36076355 44.4928009 38.36076355 -8.2071991 38.36076355 C-8.2071991 100.40076355 -8.2071991 162.44076355 -8.2071991 226.36076355 C-8.5371991 226.36076355 -8.8671991 226.36076355 -9.2071991 226.36076355 C-9.2772039 197.33700447 -9.3301454 168.313258 -9.36263561 139.28943157 C-9.36569526 136.60951416 -9.36881922 133.92959684 -9.37199402 131.24967957 C-9.37278095 130.5835594 -9.37356788 129.91743924 -9.37437866 129.23113362 C-9.38744207 118.437269 -9.41110104 107.64345219 -9.43865748 96.84961595 C-9.4666857 85.77887498 -9.48314523 74.70815355 -9.48946458 63.63737804 C-9.49338394 57.41708579 -9.50262899 51.19690206 -9.52438927 44.97664452 C-9.5446883 39.12692525 -9.55104626 33.27735963 -9.54652214 27.42760849 C-9.5473503 25.27609613 -9.55335493 23.12457885 -9.56481552 20.97309685 C-9.57965657 18.04436304 -9.57618343 15.11621577 -9.56796265 12.18746948 C-9.57670117 11.32852654 -9.5854397 10.46958359 -9.59444302 9.58461207 C-9.550282 3.7973863 -9.550282 3.7973863 -7.85751629 1.64309645 C-5.32205281 -0.32701466 -3.17177789 -0.00774234 0 0 Z " fill="#8181FD" transform="translate(150.2071990966797,101.63923645019531)"/>
<path d="M0 0 C2.51834106 -0.36076355 2.51834106 -0.36076355 5.73486328 -0.34057617 C6.95278564 -0.34021362 8.17070801 -0.33985107 9.42553711 -0.33947754 C11.35345093 -0.31645569 11.35345093 -0.31645569 13.3203125 -0.29296875 C14.49779053 -0.28994751 15.67526855 -0.28692627 16.88842773 -0.28381348 C21.30070723 -0.26807862 25.71286212 -0.22619495 30.125 -0.1875 C44.913125 -0.0946875 44.913125 -0.0946875 60 0 C60 28.71 60 57.42 60 87 C45.4903125 87.0928125 45.4903125 87.0928125 30.6875 87.1875 C27.63459717 87.21481201 24.58169434 87.24212402 21.4362793 87.27026367 C19.02392981 87.27902323 16.61157591 87.28666841 14.19921875 87.29296875 C12.31136658 87.3159906 12.31136658 87.3159906 10.38537598 87.33947754 C8.58912781 87.34002136 8.58912781 87.34002136 6.7565918 87.34057617 C5.19439156 87.35056892 5.19439156 87.35056892 3.60063171 87.36076355 C1 87 1 87 -0.83651733 85.96174622 C-2.6599675 82.88722988 -2.40808646 79.74356108 -2.37231445 76.27148438 C-2.37596512 75.48582596 -2.37961578 74.70016754 -2.38337708 73.89070129 C-2.39148864 71.29149822 -2.3778677 68.69291739 -2.36328125 66.09375 C-2.36276271 64.28918457 -2.36328016 62.48461858 -2.36479187 60.68005371 C-2.36470212 56.89713107 -2.35426697 53.11442143 -2.33618164 49.33154297 C-2.31349438 44.47901213 -2.31295007 39.6267926 -2.31969929 34.77422333 C-2.32303848 31.04764024 -2.31641012 27.32112831 -2.30657005 23.59455872 C-2.3027169 21.80516431 -2.30157031 20.01576199 -2.3031559 18.22636414 C-2.30352616 15.72692749 -2.29091736 13.22789208 -2.2746582 10.72851562 C-2.27713562 9.98660477 -2.27961304 9.24469391 -2.28216553 8.4803009 C-2.24358824 4.77038358 -2.11378369 3.17067554 0 0 Z " fill="#FFF1EB" transform="translate(71,232)"/>
<path d="M0 0 C1.24370865 -0.00708481 2.4874173 -0.01416962 3.76881409 -0.02146912 C5.15467871 -0.01917508 6.54054298 -0.01666536 7.92640686 -0.01396179 C9.37994652 -0.01830702 10.83348389 -0.02348953 12.28701782 -0.02944946 C16.24154584 -0.04287141 20.19597848 -0.04341459 24.15052485 -0.04088616 C27.4483809 -0.03981857 30.74621747 -0.04469438 34.04406935 -0.04949158 C41.82257158 -0.0605979 49.60102553 -0.06101792 57.37953186 -0.05497742 C65.41162868 -0.04893601 73.44355041 -0.06125025 81.47561735 -0.08254749 C88.3648309 -0.10014466 95.25398862 -0.10616782 102.14322382 -0.10290974 C106.26085419 -0.10109366 110.37835968 -0.10376519 114.49596977 -0.11762428 C118.36769785 -0.13016743 122.23915237 -0.12829215 126.11087608 -0.11521339 C127.53350668 -0.11284032 128.95615632 -0.11560836 130.37876511 -0.12383652 C132.31750797 -0.13424304 134.25632826 -0.12443483 136.19506836 -0.11352539 C137.28110824 -0.11369313 138.36714811 -0.11386087 139.48609829 -0.1140337 C142.161026 0.26069641 142.161026 0.26069641 144.01135063 1.42223549 C145.64347822 4.03219207 145.52986086 5.98050667 145.52178955 9.05029297 C145.52797554 10.861315 145.52797554 10.861315 145.5342865 12.70892334 C145.52366914 14.04869302 145.51276471 15.38846046 145.50160217 16.72822571 C145.50075605 18.13751711 145.50123075 19.54680983 145.50292969 20.95610046 C145.50379166 24.78442861 145.48613339 28.6124757 145.46520782 32.44073844 C145.44647461 36.44059057 145.44469323 40.4404489 145.44113159 44.44033813 C145.43180123 52.01577588 145.4071741 59.591084 145.37708312 67.16646463 C145.34356989 75.79029379 145.32706086 84.41412909 145.31199682 93.03800714 C145.28062537 110.7789771 145.22784567 128.51982634 145.161026 146.26069641 C144.831026 146.26069641 144.501026 146.26069641 144.161026 146.26069641 C144.161026 109.30069641 144.161026 72.34069641 144.161026 34.26069641 C94.001026 34.26069641 43.841026 34.26069641 -7.838974 34.26069641 C-7.838974 0.01482264 -7.838974 0.01482264 0 0 Z " fill="#FC6C6E" transform="translate(315.83897399902344,47.73930358886719)"/>
<path d="M0 0 C26.07 0 52.14 0 79 0 C79.99 4.95 79.99 4.95 81 10 C82.31773254 13.4527632 82.31773254 13.4527632 83.9375 16.4375 C84.44152344 17.42621094 84.94554687 18.41492188 85.46484375 19.43359375 C86.81954094 21.69831653 88.13677483 23.18126976 90 25 C90 25.66 90 26.32 90 27 C88.02 27.33 86.04 27.66 84 28 C83.505 23.545 83.505 23.545 83 19 C56.27 19.33 29.54 19.66 2 20 C29.06 47.06 56.12 74.12 84 102 C82 103 82 103 79.42822266 102.1706543 C78.3510498 101.72633057 77.27387695 101.28200684 76.1640625 100.82421875 C74.96378418 100.33074951 73.76350586 99.83728027 72.52685547 99.32885742 C71.22587122 98.78260859 69.92526004 98.23547047 68.625 97.6875 C67.97194885 97.41467194 67.31889771 97.14184387 66.64605713 96.86074829 C51.17643836 90.38940423 35.85436167 83.54351332 22 74 C18.96099769 71.97399846 18.38432744 71.75976048 14.98046875 71.76171875 C14.20509766 71.74560547 13.42972656 71.72949219 12.63085938 71.71289062 C11.0137508 71.69608614 9.39647947 71.69070771 7.77929688 71.69726562 C3.61653766 71.59052821 1.22510042 71.11915615 -2.52734375 69.1328125 C-6.09814827 64.60866522 -5.81703474 60.79979713 -5.75 55.1875 C-5.7773997 48.38780691 -6.18544667 42.55922195 -8 36 C-9.40810555 23.05274377 -4.61202876 11.99127478 0 0 Z " fill="#FCFCFF" transform="translate(100,383)"/>
<path d="M0 0 C3.18688486 3.18688486 3.79334797 6.41773578 4.11328125 10.76171875 C3.92109938 14.55896744 2.56720902 16.2494189 0 19 C-21.30403102 37.53158863 -58.69254828 38.42249828 -85.4375 38.3125 C-86.3583136 38.31067719 -87.2791272 38.30885437 -88.22784424 38.30697632 C-116.97904091 38.21137359 -152.24198506 37.27616382 -174.5 16.6875 C-176.6005774 12.92396549 -177.02421206 9.20981282 -176 5 C-173.96875 2.72265625 -173.96875 2.72265625 -172 1 C-170.49373047 1.79664063 -170.49373047 1.79664063 -168.95703125 2.609375 C-147.88714079 13.57754748 -124.65593352 18.10016532 -100.95703125 18.203125 C-99.3896949 18.21167511 -99.3896949 18.21167511 -97.79069519 18.22039795 C-95.5828857 18.22980341 -93.37506246 18.23636411 -91.16723633 18.24023438 C-87.86708396 18.24984111 -84.56758217 18.28086662 -81.26757812 18.3125 C-61.69331246 18.41003368 -42.83249388 16.46080032 -24 11 C-22.92363281 10.69191406 -21.84726562 10.38382812 -20.73828125 10.06640625 C-13.86812967 7.9464235 -5.19898394 5.19898394 0 0 Z " fill="#B0B0F1" transform="translate(342,449)"/>
<path d="M0 0 C5.94 0 11.88 0 18 0 C18 12.87 18 25.74 18 39 C-8.07 39 -34.14 39 -61 39 C-61 7 -61 7 -59 5 C-56.55758667 4.7215271 -56.55758667 4.7215271 -53.44873047 4.68115234 C-51.70715164 4.65134781 -51.70715164 4.65134781 -49.9303894 4.62094116 C-48.67203278 4.60938995 -47.41367615 4.59783875 -46.1171875 4.5859375 C-44.19037643 4.55688828 -44.19037643 4.55688828 -42.22463989 4.5272522 C-38.80852465 4.47586059 -35.39236993 4.43627286 -31.97607422 4.39910889 C-28.49046001 4.35911302 -25.00501097 4.30800062 -21.51953125 4.2578125 C-14.6798081 4.16097025 -7.83997904 4.0765922 -1 4 C-0.67 2.68 -0.34 1.36 0 0 Z " fill="#FE9B33" transform="translate(113,178)"/>
<path d="M0 0 C27.06 0 54.12 0 82 0 C82.495 4.95 82.495 4.95 83 10 C81.98679687 10.49628906 80.97359375 10.99257813 79.9296875 11.50390625 C68.59247526 17.09785914 68.59247526 17.09785914 61 27 C60.46770413 32.34041106 60.31484857 36.67694896 62.8125 41.5 C65.29859171 44.35646694 65.29859171 44.35646694 68 47 C67.67 47.639375 67.34 48.27875 67 48.9375 C65.45716085 53.6624449 64.70480678 58.29436332 66.921875 62.92578125 C72.44989905 70.25854256 81.53098697 73.40365125 90.09912109 75.68701172 C98.93646659 78.06939642 103.53915861 81.40230764 109 89 C110.32766444 90.67118601 111.6594455 92.33913601 113 94 C109.99466083 93.35602767 106.99634641 92.68457516 104 92 C103.24425941 91.83012951 102.48851883 91.66025902 101.70987701 91.48524094 C85.03586244 87.45959625 75.32796504 78.07295178 63.671875 65.9765625 C61.81996113 64.10288831 59.96519079 62.23203356 58.10772705 60.36386108 C54.25098313 56.47615551 50.41818822 52.56621548 46.60253906 48.63818359 C41.21371216 43.09064207 35.78455799 37.58394953 30.34588766 32.08532071 C22.66895305 24.32035618 15.01221131 16.5355532 7.39355469 8.71337891 C6.63951355 7.94250946 5.88547241 7.17164001 5.10858154 6.37741089 C4.4306958 5.6793634 3.75281006 4.98131592 3.05438232 4.26211548 C2.46091381 3.65268412 1.8674453 3.04325275 1.25599289 2.41535378 C0 1 0 1 0 0 Z " fill="#F6F6FE" transform="translate(101,402)"/>
<path d="M0 0 C26.07 0 52.14 0 79 0 C79.99 4.95 79.99 4.95 81 10 C82.31773254 13.4527632 82.31773254 13.4527632 83.9375 16.4375 C84.44152344 17.42621094 84.94554687 18.41492188 85.46484375 19.43359375 C86.81954094 21.69831653 88.13677483 23.18126976 90 25 C90 25.66 90 26.32 90 27 C88.02 27.33 86.04 27.66 84 28 C83.505 23.545 83.505 23.545 83 19 C53.63 19 24.26 19 -6 19 C-3 7 -3 7 0 0 Z " fill="#A6A6EE" transform="translate(100,383)"/>
<path d="M0 0 C0.84720612 0.48608231 1.69441223 0.97216461 2.56729126 1.47297668 C6.32716517 3.14553779 8.83002601 3.3943311 12.92333984 3.43237305 C13.5874588 3.4425647 14.25157776 3.45275635 14.93582153 3.46325684 C17.11094774 3.49323029 19.28563247 3.50262818 21.4609375 3.51171875 C22.97695359 3.52857715 24.4929558 3.54672896 26.00894165 3.56611633 C29.98398501 3.61349676 33.95897208 3.64338311 37.9342041 3.66955566 C41.9966137 3.69942184 46.05882959 3.74593126 50.12109375 3.79101562 C58.08064979 3.8769127 66.04018611 3.94277837 74 4 C74 10.27 74 16.54 74 23 C70.3158756 23.9210311 67.60168312 24.11239488 63.84204102 24.08520508 C62.59717422 24.07801956 61.35230743 24.07083405 60.06971741 24.06343079 C58.71443965 24.04949714 57.3591691 24.03484645 56.00390625 24.01953125 C55.31876387 24.01257421 54.63362148 24.00561718 53.92771721 23.99844933 C50.30384649 23.96111485 46.68012448 23.91713601 43.05639648 23.86791992 C39.3195933 23.81852411 35.58300389 23.79236542 31.84594822 23.77148914 C28.96577582 23.75109458 26.08602045 23.71321111 23.20609856 23.6706295 C21.82871071 23.65332373 20.45122335 23.6426023 19.07373238 23.63868141 C17.14478211 23.63158003 15.21599089 23.59722788 13.28735352 23.56176758 C12.19133316 23.54986893 11.09531281 23.53797028 9.96607971 23.52571106 C6.32357623 22.88010995 4.63897984 21.54209432 2 19 C0.3501993 15.70039859 0.61741639 12.00872116 0.4375 8.375 C0.39431641 7.57320312 0.35113281 6.77140625 0.30664062 5.9453125 C0.20048543 3.9637489 0.09973145 1.98189729 0 0 Z " fill="#B1B1FE" transform="translate(302,203)"/>
<path d="M0 0 C3.18136026 1.32217221 4.95662474 3.04423238 7.36108398 5.51074219 C8.24731445 6.40986328 9.13354492 7.30898437 10.04663086 8.23535156 C10.95864258 9.18087891 11.8706543 10.12640625 12.81030273 11.10058594 C13.75012549 12.06048415 14.69087163 13.01947922 15.63256836 13.97753906 C17.93022297 16.32232505 20.21803033 18.67593121 22.49780273 21.03808594 C22.00280273 22.52308594 22.00280273 22.52308594 21.49780273 24.03808594 C19.51780273 24.03808594 17.53780273 24.03808594 15.49780273 24.03808594 C15.50303955 24.6387085 15.50827637 25.23933105 15.51367188 25.8581543 C15.53438287 28.56395432 15.54744399 31.2697377 15.56030273 33.97558594 C15.56868164 34.92111328 15.57706055 35.86664063 15.58569336 36.84082031 C15.58891602 37.73994141 15.59213867 38.6390625 15.59545898 39.56542969 C15.6006958 40.3980835 15.60593262 41.2307373 15.61132812 42.08862305 C15.49780273 44.03808594 15.49780273 44.03808594 14.49780273 45.03808594 C12.68530273 45.17089844 12.68530273 45.17089844 10.49780273 45.16308594 C9.77592773 45.16566406 9.05405273 45.16824219 8.31030273 45.17089844 C6.49780273 45.03808594 6.49780273 45.03808594 5.49780273 44.03808594 C5.42508532 41.68495039 5.41409406 39.32974925 5.43530273 36.97558594 C5.44432617 35.68523437 5.45334961 34.39488281 5.46264648 33.06542969 C5.47424805 32.06640625 5.48584961 31.06738281 5.49780273 30.03808594 C1.86780273 30.36808594 -1.76219727 30.69808594 -5.50219727 31.03808594 C-5.59307617 32.42833984 -5.59307617 32.42833984 -5.68579102 33.84667969 C-5.76958008 35.04421875 -5.85336914 36.24175781 -5.93969727 37.47558594 C-6.0209082 38.67054688 -6.10211914 39.86550781 -6.18579102 41.09667969 C-6.50219727 44.03808594 -6.50219727 44.03808594 -7.50219727 45.03808594 C-10.17278578 45.17923755 -12.82651964 45.08055701 -15.50219727 45.03808594 C-16.67645991 42.68956066 -16.61727899 41.30034528 -16.59985352 38.68652344 C-16.59663086 37.83574219 -16.5934082 36.98496094 -16.59008789 36.10839844 C-16.58170898 35.21894531 -16.57333008 34.32949219 -16.56469727 33.41308594 C-16.56018555 32.51589844 -16.55567383 31.61871094 -16.55102539 30.69433594 C-16.53922318 28.47551945 -16.52275882 26.25683575 -16.50219727 24.03808594 C-18.15219727 24.03808594 -19.80219727 24.03808594 -21.50219727 24.03808594 C-22.25854492 22.33813477 -22.25854492 22.33813477 -22.50219727 20.03808594 C-19.7655181 16.19738242 -16.23304597 13.02849602 -12.87719727 9.72558594 C-11.96067383 8.78134766 -11.04415039 7.83710938 -10.09985352 6.86425781 C-9.20911133 5.97673828 -8.31836914 5.08921875 -7.40063477 4.17480469 C-6.58256348 3.35713623 -5.76449219 2.53946777 -4.92163086 1.69702148 C-2.50219727 0.03808594 -2.50219727 0.03808594 0 0 Z " fill="#6D6DFF" transform="translate(188.502197265625,161.9619140625)"/>
<path d="M0 0 C3.3 0 6.6 0 10 0 C10 2.64 10 5.28 10 8 C10.86625 8.226875 11.7325 8.45375 12.625 8.6875 C16.61778814 10.24025095 18.84248305 12.14319895 22 15 C20.50902342 18.7952131 18.24299151 20.61042731 15 23 C13.824375 22.0409375 13.824375 22.0409375 12.625 21.0625 C8.56128027 17.86957735 6.20217933 17.47096481 1 18 C-1.91963173 19.98783437 -3.61102978 21.4314697 -4.48046875 24.9375 C-4.75539772 28.86081066 -4.21963243 30.67055136 -2 34 C1.1137505 36.07583366 3.17480697 36.72196918 6.9296875 36.5078125 C10.65748516 35.59344704 13.07968439 33.43359634 16 31 C17.98 32.98 19.96 34.96 22 37 C20.5019913 40.81311305 18.37351976 42.72483551 15 45 C12.1875 45.75 12.1875 45.75 10 46 C10 48.97 10 51.94 10 55 C6.7 55 3.4 55 0 55 C-0.020625 53.7625 -0.04125 52.525 -0.0625 51.25 C-0.26206133 49.02363313 -0.26206133 49.02363313 -1 47 C-3.90573322 45.01469593 -3.90573322 45.01469593 -6.08203125 44.05859375 C-9.88212831 41.96118784 -13.23317555 38.24470429 -14.64453125 34.11328125 C-15.59427353 28.46701119 -16.12422393 22.31544351 -13.375 17.125 C-10.19632271 12.94252988 -7.34944829 9.66397452 -2.125 8.1875 C-1.42375 8.125625 -0.7225 8.06375 0 8 C0 5.36 0 2.72 0 0 Z " fill="#FFAB69" transform="translate(102,248)"/>
<path d="M0 0 C0.87344055 -0.00365067 1.7468811 -0.00730133 2.64678955 -0.01106262 C5.53816076 -0.01917822 8.42897332 -0.00554962 11.3203125 0.0090332 C13.32666015 0.00955169 15.33300832 0.00903444 17.33935547 0.00752258 C21.5459755 0.00761235 25.75240406 0.01805132 29.95898438 0.03613281 C35.35631346 0.05882007 40.75336267 0.05936456 46.15072632 0.05261517 C50.29421484 0.04927674 54.43763933 0.0559029 58.58111572 0.0657444 C60.57146876 0.06959887 62.56182892 0.0707436 64.55218506 0.06915855 C67.33180356 0.06878849 70.11106068 0.08139165 72.890625 0.09765625 C73.7166925 0.09517883 74.54276001 0.09270142 75.39385986 0.09014893 C79.26434217 0.12637002 81.14986856 0.17535183 84.4453125 2.37231445 C84.7578125 5.37231445 84.7578125 5.37231445 84.4453125 8.37231445 C81.82193241 10.99569454 79.95203784 10.61734491 76.38024902 10.64337158 C75.53031372 10.63932312 74.68037842 10.63527466 73.8046875 10.63110352 C72.91027954 10.63460815 72.01587158 10.63811279 71.09436035 10.64172363 C68.1279329 10.6505504 65.16174252 10.64468846 62.1953125 10.63793945 C60.14029901 10.63928583 58.08528583 10.64122613 56.03027344 10.64373779 C51.71937025 10.64669034 47.40854983 10.64238721 43.09765625 10.63305664 C37.56233126 10.62166206 32.0272002 10.62822083 26.49188232 10.64020157 C22.24721812 10.64741664 18.00260015 10.64513386 13.75793457 10.63994598 C11.71651181 10.63860851 9.6750849 10.6402606 7.63366699 10.64490509 C4.78431013 10.64996452 1.93527062 10.64226831 -0.9140625 10.63110352 C-1.7639978 10.63515198 -2.61393311 10.63920044 -3.48962402 10.64337158 C-9.32615965 10.60084231 -9.32615965 10.60084231 -11.5546875 8.37231445 C-11.8671875 5.93481445 -11.8671875 5.93481445 -11.5546875 3.37231445 C-8.42374244 -0.61665947 -4.71680543 -0.04364537 0 0 Z " fill="#8584FD" transform="translate(347.5546875,167.627685546875)"/>
<path d="M0 0 C0.87344055 -0.00365067 1.7468811 -0.00730133 2.64678955 -0.01106262 C5.53816076 -0.01917822 8.42897332 -0.00554962 11.3203125 0.0090332 C13.32666015 0.00955169 15.33300832 0.00903444 17.33935547 0.00752258 C21.5459755 0.00761235 25.75240406 0.01805132 29.95898438 0.03613281 C35.35631346 0.05882007 40.75336267 0.05936456 46.15072632 0.05261517 C50.29421484 0.04927674 54.43763933 0.0559029 58.58111572 0.0657444 C60.57146876 0.06959887 62.56182892 0.0707436 64.55218506 0.06915855 C67.33180356 0.06878849 70.11106068 0.08139165 72.890625 0.09765625 C73.7166925 0.09517883 74.54276001 0.09270142 75.39385986 0.09014893 C79.26434217 0.12637002 81.14986856 0.17535183 84.4453125 2.37231445 C84.7578125 5.37231445 84.7578125 5.37231445 84.4453125 8.37231445 C81.82193241 10.99569454 79.95203784 10.61734491 76.38024902 10.64337158 C75.53031372 10.63932312 74.68037842 10.63527466 73.8046875 10.63110352 C72.91027954 10.63460815 72.01587158 10.63811279 71.09436035 10.64172363 C68.1279329 10.6505504 65.16174252 10.64468846 62.1953125 10.63793945 C60.14029901 10.63928583 58.08528583 10.64122613 56.03027344 10.64373779 C51.71937025 10.64669034 47.40854983 10.64238721 43.09765625 10.63305664 C37.56233126 10.62166206 32.0272002 10.62822083 26.49188232 10.64020157 C22.24721812 10.64741664 18.00260015 10.64513386 13.75793457 10.63994598 C11.71651181 10.63860851 9.6750849 10.6402606 7.63366699 10.64490509 C4.78431013 10.64996452 1.93527062 10.64226831 -0.9140625 10.63110352 C-1.7639978 10.63515198 -2.61393311 10.63920044 -3.48962402 10.64337158 C-9.32615965 10.60084231 -9.32615965 10.60084231 -11.5546875 8.37231445 C-11.8671875 5.93481445 -11.8671875 5.93481445 -11.5546875 3.37231445 C-8.42374244 -0.61665947 -4.71680543 -0.04364537 0 0 Z " fill="#8785FD" transform="translate(347.5546875,114.627685546875)"/>
<path d="M0 0 C0.8499353 0.00404846 1.69987061 0.00809692 2.57556152 0.01226807 C3.46996948 0.00876343 4.36437744 0.00525879 5.28588867 0.00164795 C8.25231613 -0.00717881 11.2185065 -0.00131688 14.18493652 0.00543213 C16.23995001 0.00408575 18.29496319 0.00214545 20.34997559 -0.00036621 C24.66087877 -0.00331876 28.97169919 0.00098437 33.28259277 0.01031494 C38.81791777 0.02170952 44.35304883 0.01515075 49.8883667 0.00317001 C54.13303091 -0.00404506 58.37764888 -0.00176228 62.62231445 0.0034256 C64.66373721 0.00476307 66.70516412 0.00311098 68.74658203 -0.00153351 C71.59593889 -0.00659294 74.4449784 0.00110327 77.29431152 0.01226807 C78.14424683 0.0082196 78.99418213 0.00417114 79.86987305 0 C85.70640867 0.04252928 85.70640867 0.04252928 87.93493652 2.27105713 C88.24743652 4.70855713 88.24743652 4.70855713 87.93493652 7.27105713 C86.65023804 8.90740395 86.65023804 8.90740395 84.93493652 10.27105713 C82.01266398 10.56734309 79.30351171 10.68073058 76.38024902 10.65924072 C75.50680847 10.66449768 74.63336792 10.66975464 73.73345947 10.6751709 C70.84210402 10.68839037 67.95129772 10.67962593 65.05993652 10.66949463 C63.05358779 10.6715148 61.04723977 10.67442577 59.04089355 10.67819214 C54.83427953 10.68261813 50.62785649 10.67617553 46.42126465 10.66217041 C41.02386269 10.64507843 35.62690824 10.65491814 30.22952271 10.6728878 C26.08602515 10.68371817 21.94263403 10.68028272 17.7991333 10.67250443 C15.80877632 10.67050035 13.81840974 10.67296893 11.82806396 10.67994308 C9.04832284 10.68754524 6.26931072 10.67597076 3.48962402 10.65924072 C2.25052277 10.66834976 2.25052277 10.66834976 0.98638916 10.67764282 C-4.63260878 10.61485571 -4.63260878 10.61485571 -6.78036499 8.90740395 C-8.06506348 7.27105713 -8.06506348 7.27105713 -8.37756348 4.70855713 C-7.71188079 -0.48376783 -4.48867317 0.03270776 0 0 Z " fill="#8785FD" transform="translate(344.0650634765625,134.72894287109375)"/>
<path d="M0 0 C2.0703125 2.328125 2.0703125 2.328125 4.125 5.25 C5.14980469 6.68085938 5.14980469 6.68085938 6.1953125 8.140625 C10.01798619 14.19732878 10.26100285 18.79789161 10.125 25.8125 C10.11597656 26.69615234 10.10695312 27.57980469 10.09765625 28.49023438 C10.07419637 30.66027359 10.03832865 32.83017247 10 35 C-2.5191818 33.28819351 -17.76636532 29.64881018 -26.76953125 20.12890625 C-28.30534374 17.47170686 -28.48800428 16.0237128 -28 13 C-23.03126708 6.44904487 -8.37102341 -3.46710298 0 0 Z " fill="#FA696D" transform="translate(199,419)"/>
<path d="M0 0 C0.10883596 2.37625177 0.18766696 4.74743976 0.25 7.125 C0.30027344 8.12273437 0.30027344 8.12273437 0.3515625 9.140625 C0.45227668 14.27704832 -0.69628017 17.1071553 -4 21 C-6.79797204 22.71044656 -8.86550134 23.2476867 -12.12597656 23.22705078 C-13.32676849 23.22682419 -13.32676849 23.22682419 -14.55181885 23.22659302 C-15.40612488 23.21627045 -16.26043091 23.20594788 -17.140625 23.1953125 C-18.02280701 23.1924826 -18.90498901 23.18965271 -19.81390381 23.18673706 C-22.62607499 23.17555961 -25.4379254 23.15045951 -28.25 23.125 C-30.15884956 23.11496705 -32.06770412 23.10584175 -33.9765625 23.09765625 C-38.65126408 23.07733146 -43.32527381 23.03817834 -48 23 C-47.67 16.73 -47.34 10.46 -47 4 C-44.26589844 3.96261719 -41.53179687 3.92523438 -38.71484375 3.88671875 C-36.05045833 3.84043332 -33.3862095 3.78922526 -30.72192383 3.73754883 C-28.87825912 3.70440974 -27.03449564 3.67634387 -25.19067383 3.65356445 C-22.53163792 3.61981488 -19.87349813 3.56749034 -17.21484375 3.51171875 C-16.39789536 3.50532883 -15.58094696 3.4989389 -14.73924255 3.49235535 C-9.58045535 3.36148723 -4.57927856 0 0 0 Z " fill="#C3C3FA" transform="translate(376,338)"/>
<path d="M0 0 C9.63529538 1.76647082 19.18197086 4.94102742 27 11 C27.804375 11.598125 28.60875 12.19625 29.4375 12.8125 C31 15 31 15 31.25 18.375 C29.15484518 24.45094897 24.78525794 26.63444993 19.1875 29.37890625 C11.54431417 32.71284798 3.41875316 36 -5 36 C-5.60165645 22.95074007 -4.77522192 12.21092463 0 0 Z " fill="#F8686D" transform="translate(310,417)"/>
<path d="M0 0 C0.94238525 0.4844458 1.88477051 0.9688916 2.85571289 1.46801758 C7.61681309 3.4978365 12.19452503 3.47644087 17.30859375 3.51171875 C18.27531509 3.52966995 19.24203644 3.54762115 20.23805237 3.56611633 C23.30449147 3.61999511 26.37077692 3.65404309 29.4375 3.6875 C31.5254119 3.72069286 33.61330359 3.75518433 35.70117188 3.79101562 C40.80066999 3.87570875 45.90012431 3.94262679 51 4 C50.60167969 4.61746094 50.20335937 5.23492187 49.79296875 5.87109375 C46.31839322 11.42534222 43.74030922 16.67992966 42 23 C37.26780238 23.09927153 32.53621787 23.17165633 27.80322266 23.21972656 C26.19504226 23.23977627 24.58693417 23.26702364 22.97900391 23.30175781 C20.6602998 23.35057264 18.34256375 23.37303428 16.0234375 23.390625 C15.31069672 23.41127014 14.59795593 23.43191528 13.86361694 23.45318604 C8.76286411 23.45545146 5.93893609 22.17973072 2 19 C-0.70544174 15.50611524 -0.22893683 11.47942933 -0.125 7.25 C-0.11597656 6.55261719 -0.10695312 5.85523438 -0.09765625 5.13671875 C-0.07419888 3.42433042 -0.03833104 1.71211996 0 0 Z " fill="#FEC399" transform="translate(136,338)"/>
<path d="M0 0 C2.66665069 2.54485655 3.22334488 4.58868416 3.43359375 8.15234375 C3.45080079 9.74730355 3.45159228 11.34250964 3.4375 12.9375 C3.4674707 14.13536133 3.4674707 14.13536133 3.49804688 15.35742188 C3.49468251 19.41820761 3.31904468 21.49621076 1.09765625 25.00390625 C-2.7927041 28.70590651 -6.62580801 28.28581311 -11.75 28.375 C-12.94882813 28.43107422 -12.94882813 28.43107422 -14.171875 28.48828125 C-18.11349169 28.54662755 -21.20857218 28.3492678 -24.53515625 26.1015625 C-27.99760238 21.74469685 -27.856185 18.41361173 -27.6875 13 C-27.70232422 12.11054688 -27.71714844 11.22109375 -27.73242188 10.3046875 C-27.67525942 5.79894139 -27.46927929 3.62677166 -24.70703125 -0.0625 C-18.00266263 -4.86100914 -6.69261175 -4.80495203 0 0 Z " fill="#6D6DFF" transform="translate(122,426)"/>
<path d="M0 0 C0.80759766 -0.03738281 1.61519531 -0.07476563 2.44726562 -0.11328125 C6.87811958 -0.17860096 8.61478579 -0.08109147 12.19921875 2.7734375 C15.29652447 6.82610078 15.39968481 9.72898279 15.4375 14.6875 C15.46328125 16.00363281 15.4890625 17.31976563 15.515625 18.67578125 C15.16826782 22.59181997 14.64822056 24.35259323 12.1875 27.375 C7.22180549 31.35453725 1.83721527 31.00127211 -4.25390625 30.8046875 C-9.10975437 30.21836116 -10.7796408 29.12147313 -13.8125 25.375 C-15.43312503 22.13374994 -15.08041352 18.62050138 -15.125 15.0625 C-15.15400391 14.30259766 -15.18300781 13.54269531 -15.21289062 12.75976562 C-15.25792803 8.77222281 -15.1127138 6.84729512 -12.91796875 3.39453125 C-9.0167904 -0.34741533 -5.15513628 0.08923131 0 0 Z " fill="#FD6E6F" transform="translate(172.8125,19.625)"/>
<path d="M0 0 C2.76220704 4.14331056 2.36768911 7.50594895 2.375 12.375 C2.39949219 13.22578125 2.42398437 14.0765625 2.44921875 14.953125 C2.46883903 19.15186436 2.37207376 21.40437575 0.1015625 25.0390625 C-3.99408765 28.86065427 -7.95588098 28.28738244 -13.3125 28.375 C-14.16779297 28.41238281 -15.02308594 28.44976562 -15.90429688 28.48828125 C-20.36745154 28.55050959 -22.36850543 28.47179697 -26.04296875 25.7265625 C-30.08391201 20.0966655 -29.46665749 13.72691171 -29 7 C-28.42036589 3.95825035 -27.7681485 2.68074127 -26 0 C-18.38856463 -5.02030844 -7.73942642 -4.54270681 0 0 Z M-18 8 C-18 10.97 -18 13.94 -18 17 C-15.03 17 -12.06 17 -9 17 C-9 14.03 -9 11.06 -9 8 C-11.97 8 -14.94 8 -18 8 Z " fill="#FF6B6B" transform="translate(429,248)"/>
<path d="M0 0 C3.65680485 0.20315582 6.17430157 0.36858356 9.125 2.625 C10.95774949 4.27174296 10.95774949 4.27174296 13.5625 3.875 C16.04081185 3.1980947 16.04081185 3.1980947 17.4375 1.4375 C19 0 19 0 22 -0.375 C25 0 25 0 26.9375 1.125 C28 3 28 3 27.875 5.9375 C27 9 27 9 25.4375 11.0625 C23.82510362 12.93570787 23.82510362 12.93570787 23.5625 15.4375 C23.80969903 18.1938305 23.80969903 18.1938305 26.0625 20.4375 C28 23 28 23 27.75 26.3125 C27.5025 27.199375 27.255 28.08625 27 29 C23.875 29.75 23.875 29.75 20 30 C17.98745218 28.68568305 15.98689731 27.35278115 14 26 C10.82257395 25.9041582 10.82257395 25.9041582 8 27 C7.525625 27.53625 7.05125 28.0725 6.5625 28.625 C5.7890625 29.305625 5.7890625 29.305625 5 30 C1.3125 29.6875 1.3125 29.6875 -2 29 C-2.75 26.3125 -2.75 26.3125 -3 23 C-1.69254251 21.31295807 -0.35827971 19.64639965 1 18 C1.66666667 15 1.66666667 15 1 12 C0.319375 11.154375 -0.36125 10.30875 -1.0625 9.4375 C-3 7 -3 7 -2.875 4.3125 C-2 2 -2 2 0 0 Z " fill="#FE9D35" transform="translate(221,31)"/>
<path d="M0 0 C3.1875 0.25 3.1875 0.25 5.125 1.75 C8.18130579 3.97276785 10.5138842 3.65075809 14.1875 3.25 C15.20769573 2.2706121 16.20899805 1.27104551 17.1875 0.25 C20.25 -0.0625 20.25 -0.0625 23.1875 0.25 C25.1875 2.25 25.1875 2.25 25.5625 4.5625 C25.07553524 8.05241414 23.36098949 9.53313813 21.1875 12.25 C20.52083333 14.75 20.52083333 14.75 21.1875 17.25 C21.8475 18.075 22.5075 18.9 23.1875 19.75 C25.1875 22.25 25.1875 22.25 25.5625 24.9375 C25.1875 27.25 25.1875 27.25 23.1875 29.25 C20.25 29.5625 20.25 29.5625 17.1875 29.25 C16.73375 28.755 16.28 28.26 15.8125 27.75 C13.40558769 25.52823479 11.21559335 25.84135331 8.0390625 25.9453125 C5.60677584 26.3455622 4.81981575 27.46929191 3.1875 29.25 C0.125 29.625 0.125 29.625 -2.8125 29.25 C-4.8125 26.25 -4.8125 26.25 -4.625 23.8125 C-3.8125 21.25 -3.8125 21.25 -2.25 19.3125 C-0.23980187 16.42830268 -0.31989457 14.69823801 -0.8125 11.25 C-1.493125 10.404375 -2.17375 9.55875 -2.875 8.6875 C-4.8125 6.25 -4.8125 6.25 -4.625 3.5 C-3.47257653 0.30867347 -3.47257653 0.30867347 0 0 Z " fill="#FE9D37" transform="translate(355.8125,372.75)"/>
<path d="M0 0 C0.33 0.99 0.66 1.98 1 3 C2.04569656 2.99333817 2.04569656 2.99333817 3.11251831 2.98654175 C9.67527726 2.94650414 16.23800225 2.91603558 22.80085564 2.89637566 C26.17506994 2.88592858 29.54918352 2.87175275 32.92333984 2.84912109 C36.80048318 2.82495115 40.67748277 2.81353489 44.5546875 2.8046875 C45.76929657 2.79436493 46.98390564 2.78404236 48.23532104 2.77340698 C49.35633209 2.77325592 50.47734314 2.77310486 51.63232422 2.77294922 C52.62271698 2.768508 53.61310974 2.76406677 54.6335144 2.75949097 C57 3 57 3 59 5 C59.35544946 7.77250576 59.48019884 9.33458365 57.81730652 11.63887024 C55.33038429 13.50153007 53.70061452 13.36178912 50.6105957 13.34057617 C49.50968094 13.34034958 48.40876617 13.34012299 47.27449036 13.33988953 C46.08691635 13.32440567 44.89934235 13.30892181 43.67578125 13.29296875 C42.45924362 13.28872391 41.24270599 13.28447906 39.98930359 13.28010559 C36.09681229 13.26328851 32.20483529 13.22562959 28.3125 13.1875 C25.67643976 13.17245713 23.04037142 13.15876804 20.40429688 13.14648438 C13.93599921 13.11337488 7.46808685 13.06157076 1 13 C0.67 8.71 0.34 4.42 0 0 Z " fill="#8585FE" transform="translate(242,239)"/>
<path d="M0 0 C7.77784995 -0.07593214 15.55560468 -0.12855012 23.33374023 -0.16479492 C25.98091199 -0.1799012 28.62805864 -0.2003873 31.27514648 -0.22631836 C35.07542101 -0.26261991 38.87536526 -0.27970803 42.67578125 -0.29296875 C44.45714226 -0.31619453 44.45714226 -0.31619453 46.27449036 -0.33988953 C47.37540512 -0.34011612 48.47631989 -0.34034271 49.6105957 -0.34057617 C51.06620659 -0.35056892 51.06620659 -0.35056892 52.55122375 -0.36076355 C55 0 55 0 56.81730652 1.36112976 C58.48019884 3.66541635 58.35544946 5.22749424 58 8 C56 10 56 10 53.6335144 10.24050903 C52.14792526 10.2338472 52.14792526 10.2338472 50.63232422 10.22705078 C48.95080765 10.22682419 48.95080765 10.22682419 47.23532104 10.22659302 C46.02071198 10.21627045 44.80610291 10.20594788 43.5546875 10.1953125 C42.31453888 10.1924826 41.07439026 10.18965271 39.79666138 10.18673706 C36.49875367 10.17742174 33.20104028 10.1594489 29.90319824 10.1373291 C26.5383543 10.11687474 23.17348193 10.10773623 19.80859375 10.09765625 C13.20565277 10.07556519 6.60284229 10.04206483 0 10 C0 6.7 0 3.4 0 0 Z " fill="#8585FF" transform="translate(243,260)"/>
<path d="M0 0 C0.8910997 -0.00630432 1.7821994 -0.01260864 2.70030212 -0.019104 C4.14718163 -0.01303131 4.14718163 -0.01303131 5.62329102 -0.00683594 C7.10660667 -0.00970612 7.10660667 -0.00970612 8.61988831 -0.01263428 C10.71387994 -0.01399691 12.80788 -0.01029502 14.90185547 -0.00195312 C18.11062593 0.00873387 21.31883506 -0.00184003 24.52758789 -0.01464844 C26.55949017 -0.01332663 28.5913921 -0.01076381 30.62329102 -0.00683594 C32.06713417 -0.01290863 32.06713417 -0.01290863 33.54014587 -0.019104 C34.43439774 -0.01279968 35.3286496 -0.00649536 36.25 0 C37.03672592 0.00159119 37.82345184 0.00318237 38.63401794 0.00482178 C40.68969727 0.25878906 40.68969727 0.25878906 43.68969727 2.25878906 C44.06469727 5.25878906 44.06469727 5.25878906 43.68969727 8.25878906 C40.55085895 10.35134794 39.82488456 10.51034777 36.25 10.51757812 C34.90862221 10.52703461 34.90862221 10.52703461 33.54014587 10.53668213 C32.57758377 10.53263367 31.61502167 10.52858521 30.62329102 10.52441406 C29.13854027 10.52728424 29.13854027 10.52728424 27.62379456 10.5302124 C25.53158311 10.53157344 23.43936319 10.52788269 21.34716797 10.51953125 C18.13628281 10.50881937 14.92595573 10.51943524 11.71508789 10.53222656 C9.68448769 10.53090518 7.65388784 10.52834322 5.62329102 10.52441406 C4.17641151 10.53048676 4.17641151 10.53048676 2.70030212 10.53668213 C1.80920242 10.53037781 0.91810272 10.52407349 0 10.51757812 C-0.78593033 10.51598694 -1.57186066 10.51439575 -2.38160706 10.51275635 C-4.31030273 10.25878906 -4.31030273 10.25878906 -6.31030273 8.25878906 C-6.56030273 5.25878906 -6.56030273 5.25878906 -6.31030273 2.25878906 C-3.88942849 -0.16208518 -3.31010456 0.0067016 0 0 Z " fill="#FE6D6E" transform="translate(233.310302734375,195.7412109375)"/>
<path d="M0 0 C0.87100342 -0.00945648 1.74200684 -0.01891296 2.6394043 -0.02865601 C3.57695557 -0.02258331 4.51450684 -0.01651062 5.48046875 -0.01025391 C6.44573486 -0.01312408 7.41100098 -0.01599426 8.40551758 -0.01895142 C10.44645779 -0.02099302 12.48741752 -0.01545648 14.52832031 -0.00292969 C17.65604315 0.01312239 20.78247371 -0.00277536 23.91015625 -0.02197266 C25.89192994 -0.01999024 27.87370283 -0.0161466 29.85546875 -0.01025391 C30.79302002 -0.0163266 31.73057129 -0.02239929 32.6965332 -0.02865601 C33.56753662 -0.01919952 34.43854004 -0.00974304 35.3359375 0 C36.10188232 0.00238678 36.86782715 0.00477356 37.65698242 0.00723267 C40.21212225 0.49126524 41.10559565 1.34148246 42.66796875 3.38818359 C42.98046875 5.95068359 42.98046875 5.95068359 42.66796875 8.38818359 C40.22668206 10.82947028 39.59716061 10.6403706 36.25 10.64697266 C34.87847778 10.65642914 34.87847778 10.65642914 33.47924805 10.66607666 C31.99485229 10.66000397 31.99485229 10.66000397 30.48046875 10.65380859 C29.46702393 10.65572205 28.4535791 10.6576355 27.40942383 10.65960693 C25.26415763 10.66096951 23.11888322 10.65726807 20.97363281 10.64892578 C17.68145303 10.63822741 14.38981897 10.64881879 11.09765625 10.66162109 C9.01692587 10.66029951 6.93619584 10.65773715 4.85546875 10.65380859 C3.86587158 10.65785706 2.87627441 10.66190552 1.85668945 10.66607666 C0.94234131 10.65977234 0.02799316 10.65346802 -0.9140625 10.64697266 C-1.72077393 10.64538147 -2.52748535 10.64379028 -3.35864258 10.64215088 C-5.33203125 10.38818359 -5.33203125 10.38818359 -7.33203125 8.38818359 C-7.69234253 5.57775563 -7.83357017 4.04519712 -6.08325195 1.75228882 C-3.8955184 0.04816394 -2.75143288 0.00857381 0 0 Z " fill="#FD6F71" transform="translate(234.33203125,176.61181640625)"/>
<path d="M0 0 C1.4282618 0.00031703 2.85654759 0.01163717 4.28466797 0.03173828 C5.41242142 0.03598312 5.41242142 0.03598312 6.56295776 0.04031372 C8.96775125 0.05152204 11.37217428 0.07662726 13.77685547 0.10205078 C15.40575635 0.11207976 17.03466305 0.12120576 18.66357422 0.12939453 C22.65981103 0.15146343 26.65577041 0.18599728 30.65185547 0.22705078 C30.65185547 3.52705078 30.65185547 6.82705078 30.65185547 10.22705078 C26.00711565 10.30121145 21.36272048 10.35565693 16.7175293 10.3918457 C15.13739011 10.40693173 13.55729278 10.42740328 11.97729492 10.45336914 C9.70594962 10.48976204 7.43515788 10.5067784 5.16357422 10.52001953 C4.10404793 10.54324532 4.10404793 10.54324532 3.02311707 10.56694031 C0.10555491 10.56794128 -1.86206177 10.56561074 -4.2980957 8.86889648 C-5.78409954 6.54539595 -5.69414446 4.92585022 -5.34814453 2.22705078 C-3.34814453 0.22705078 -3.34814453 0.22705078 0 0 Z " fill="#8282FE" transform="translate(173.34814453125,297.77294921875)"/>
<path d="M0 0 C1.09445938 0.00212242 1.09445938 0.00212242 2.21102905 0.00428772 C4.54437335 0.00989094 6.87762214 0.0224439 9.2109375 0.03515625 C10.79166528 0.04017084 12.37239457 0.04473382 13.953125 0.04882812 C17.83076604 0.05986141 21.70833557 0.07712814 25.5859375 0.09765625 C25.5859375 3.39765625 25.5859375 6.69765625 25.5859375 10.09765625 C20.78045153 10.14702508 15.97511256 10.18336068 11.16943359 10.20751953 C9.53399078 10.21758879 7.89856601 10.23124506 6.26318359 10.24853516 C3.9149938 10.2727433 1.56704162 10.28412982 -0.78125 10.29296875 C-1.88132889 10.30845261 -1.88132889 10.30845261 -3.00363159 10.32424927 C-4.80868947 10.32464993 -6.6131408 10.2197838 -8.4140625 10.09765625 C-9.0740625 9.43765625 -9.7340625 8.77765625 -10.4140625 8.09765625 C-10.1640625 4.53515625 -10.1640625 4.53515625 -9.4140625 1.09765625 C-6.40193221 -0.4084089 -3.30123628 -0.02394706 0 0 Z " fill="#8282FE" transform="translate(178.4140625,278.90234375)"/>
<path d="M0 0 C0.67671753 -0.00287018 1.35343506 -0.00574036 2.05065918 -0.00869751 C3.47958209 -0.01073647 4.90853302 -0.00521819 6.33740234 0.00732422 C8.52374725 0.02338239 10.70824379 0.00747216 12.89453125 -0.01171875 C14.28385824 -0.00973629 15.67318409 -0.00589254 17.0625 0 C18.32642578 0.00338379 19.59035156 0.00676758 20.89257812 0.01025391 C24.03125 0.3984375 24.03125 0.3984375 25.94726562 1.76318359 C27.48164409 4.07788337 27.37928816 5.68373986 27.03125 8.3984375 C24.57122213 10.85846537 23.18331161 10.64395755 19.82458496 10.67633057 C19.11934692 10.6722821 18.41410889 10.66823364 17.6875 10.6640625 C16.96260376 10.66597595 16.23770752 10.6678894 15.49084473 10.66986084 C13.95759738 10.67122237 12.4243385 10.66752814 10.89111328 10.65917969 C8.54042741 10.64847928 6.19050577 10.65907558 3.83984375 10.671875 C2.35156081 10.6705534 0.86327834 10.66799099 -0.625 10.6640625 C-1.33023804 10.66811096 -2.03547607 10.67215942 -2.76208496 10.67633057 C-7.73882514 10.62836236 -7.73882514 10.62836236 -9.96875 8.3984375 C-10.31678816 5.68373986 -10.41914409 4.07788337 -8.88476562 1.76318359 C-5.98390544 -0.30305091 -3.52575458 0.00943917 0 0 Z " fill="#FF6F6F" transform="translate(345.96875,95.6015625)"/>
<path d="M0 0 C0.72822464 0.00424484 1.45644928 0.00848969 2.20674133 0.01286316 C4.53013252 0.02964142 6.85265275 0.0672902 9.17578125 0.10546875 C10.75194059 0.12051678 12.32811354 0.13420498 13.90429688 0.14648438 C17.76596002 0.1795419 21.62697303 0.23131681 25.48828125 0.29296875 C25.48828125 3.59296875 25.48828125 6.89296875 25.48828125 10.29296875 C20.68279528 10.34233758 15.87745631 10.37867318 11.07177734 10.40283203 C9.43633453 10.41290129 7.80090976 10.42655756 6.16552734 10.44384766 C3.81733755 10.4680558 1.46938537 10.47944232 -0.87890625 10.48828125 C-1.97898514 10.50376511 -1.97898514 10.50376511 -3.10128784 10.51956177 C-4.90634572 10.51996243 -6.71079705 10.4150963 -8.51171875 10.29296875 C-10.51171875 8.29296875 -10.51171875 8.29296875 -10.82421875 5.85546875 C-10.51171875 3.29296875 -10.51171875 3.29296875 -9.46166992 1.65112305 C-6.49510019 -0.41511302 -3.48125145 -0.07631221 0 0 Z " fill="#8484FE" transform="translate(178.51171875,259.70703125)"/>
<path d="M0 0 C1.4282618 0.00031703 2.85654759 0.01163717 4.28466797 0.03173828 C5.41242142 0.03598312 5.41242142 0.03598312 6.56295776 0.04031372 C8.96775125 0.05152204 11.37217428 0.07662726 13.77685547 0.10205078 C15.40575635 0.11207976 17.03466305 0.12120576 18.66357422 0.12939453 C22.65981103 0.15146343 26.65577041 0.18599728 30.65185547 0.22705078 C30.65185547 3.52705078 30.65185547 6.82705078 30.65185547 10.22705078 C26.00711565 10.30121145 21.36272048 10.35565693 16.7175293 10.3918457 C15.13739011 10.40693173 13.55729278 10.42740328 11.97729492 10.45336914 C9.70594962 10.48976204 7.43515788 10.5067784 5.16357422 10.52001953 C4.10404793 10.54324532 4.10404793 10.54324532 3.02311707 10.56694031 C0.10555491 10.56794128 -1.86206177 10.56561074 -4.2980957 8.86889648 C-5.78409954 6.54539595 -5.69414446 4.92585022 -5.34814453 2.22705078 C-3.34814453 0.22705078 -3.34814453 0.22705078 0 0 Z " fill="#8484FE" transform="translate(173.34814453125,241.77294921875)"/>
<path d="M0 0 C1.10472656 -0.00257813 2.20945312 -0.00515625 3.34765625 -0.0078125 C4.50136719 -0.00007813 5.65507812 0.00765625 6.84375 0.015625 C7.99746094 0.00789063 9.15117187 0.00015625 10.33984375 -0.0078125 C11.44457031 -0.00523437 12.54929687 -0.00265625 13.6875 0 C15.20633789 0.00338379 15.20633789 0.00338379 16.75585938 0.00683594 C19.34375 0.265625 19.34375 0.265625 22.34375 2.265625 C22.65625 5.265625 22.65625 5.265625 22.34375 8.265625 C19.62140398 10.98797102 18.11612127 10.52350557 14.3125 10.53125 C13.10980469 10.53382813 11.90710938 10.53640625 10.66796875 10.5390625 C9.40597656 10.53132813 8.14398438 10.52359375 6.84375 10.515625 C5.58175781 10.52335937 4.31976563 10.53109375 3.01953125 10.5390625 C1.81683594 10.53648437 0.61414063 10.53390625 -0.625 10.53125 C-1.73294922 10.52899414 -2.84089844 10.52673828 -3.98242188 10.52441406 C-6.65625 10.265625 -6.65625 10.265625 -8.65625 8.265625 C-8.96875 5.265625 -8.96875 5.265625 -8.65625 2.265625 C-5.25067548 -0.00475801 -3.99905826 0.00890942 0 0 Z " fill="#8585FF" transform="translate(322.65625,259.734375)"/>
<path d="M0 0 C1.20269531 -0.00257813 2.40539062 -0.00515625 3.64453125 -0.0078125 C4.90652344 -0.00007812 6.16851562 0.00765625 7.46875 0.015625 C8.73074219 0.00789062 9.99273437 0.00015625 11.29296875 -0.0078125 C12.49566406 -0.00523437 13.69835937 -0.00265625 14.9375 0 C16.04544922 0.00225586 17.15339844 0.00451172 18.29492188 0.00683594 C20.96875 0.265625 20.96875 0.265625 22.96875 2.265625 C23.28125 5.265625 23.28125 5.265625 22.96875 8.265625 C18.19675148 11.44695734 13.07827168 10.59379405 7.46875 10.578125 C6.31503906 10.59423828 5.16132813 10.61035156 3.97265625 10.62695312 C2.86792969 10.62759766 1.76320313 10.62824219 0.625 10.62890625 C-0.38755859 10.63188721 -1.40011719 10.63486816 -2.44335938 10.63793945 C-5.03125 10.265625 -5.03125 10.265625 -6.86523438 8.90307617 C-8.50695548 6.5975855 -8.38537822 5.02782514 -8.03125 2.265625 C-5.30890398 -0.45672102 -3.80362127 0.00774443 0 0 Z " fill="#8585FF" transform="translate(322.03125,241.734375)"/>
<path d="M0 0 C0 5.61 0 11.22 0 17 C-14.82082631 14.56112985 -14.82082631 14.56112985 -20 12 C-20.66 11.01 -21.32 10.02 -22 9 C-19.44113496 7.67997444 -16.87832932 6.36886218 -14.3125 5.0625 C-13.2306543 4.50272461 -13.2306543 4.50272461 -12.12695312 3.93164062 C-4.36993243 0 -4.36993243 0 0 0 Z " fill="#FB4C4F" transform="translate(209,437)"/>
<path d="M0 0 C6.98834761 1.87012119 12.82954271 4.22916499 19 8 C19 8.66 19 9.32 19 10 C16.39741676 10.83857688 13.79314353 11.67103344 11.1875 12.5 C10.44951172 12.73847656 9.71152344 12.97695313 8.95117188 13.22265625 C5.86744804 14.19940136 3.25504191 15 0 15 C0 10.05 0 5.1 0 0 Z " fill="#FC4C4E" transform="translate(306,438)"/>
<path d="M0 0 C11.36993533 -0.16227145 22.73959471 -0.28661052 34.11045265 -0.3626852 C39.3906205 -0.39919987 44.6699955 -0.44871811 49.94970703 -0.52807617 C55.04612376 -0.60419879 60.14177853 -0.64600358 65.23871994 -0.6641407 C67.18206147 -0.6770636 69.1253618 -0.70230019 71.06837845 -0.7401104 C73.79340568 -0.79102367 76.51529546 -0.7979202 79.24072266 -0.79467773 C80.04201599 -0.81984467 80.84330933 -0.8450116 81.66888428 -0.87094116 C85.09413255 -0.82691785 87.17391691 -0.67938372 89.87434006 1.54148674 C94 6.18513878 94 6.18513878 94 9 C92.02 9.33 90.04 9.66 88 10 C87.505 5.545 87.505 5.545 87 1 C58.29 1 29.58 1 0 1 C0 0.67 0 0.34 0 0 Z " fill="#CDCDF6" transform="translate(96,401)"/>
<path d="M0 0 C3.3 0 6.6 0 10 0 C10 3.3 10 6.6 10 10 C6.7 10 3.4 10 0 10 C0 6.7 0 3.4 0 0 Z " fill="#D9D2F7" transform="translate(168,30)"/>
<path d="M0 0 C3 0.25 3 0.25 5 2.25 C5.36796448 5.12012296 5.37509409 6.65774618 3.8125 9.125 C2 10.25 2 10.25 -0.5625 10.0625 C-3 9.25 -3 9.25 -5 7.25 C-5.25 4.75 -5.25 4.75 -5 2.25 C-3 0.25 -3 0.25 0 0 Z " fill="#F6F6FF" transform="translate(256,113.75)"/>
<path d="M0 0 C2.97 0 5.94 0 9 0 C9 2.97 9 5.94 9 9 C6.03 9 3.06 9 0 9 C0 6.03 0 3.06 0 0 Z " fill="#FDFDFF" transform="translate(106,434)"/>
<path d="M0 0 C0.99 0.103125 1.98 0.20625 3 0.3125 C5 3.3125 5 3.3125 4.75 5.875 C4 8.3125 4 8.3125 2 10.3125 C-1.29714793 9.98278521 -2.6226839 9.6898161 -5 7.3125 C-5.25 4.8125 -5.25 4.8125 -5 2.3125 C-3 0.3125 -3 0.3125 0 0 Z " fill="#F7F7FF" transform="translate(274,113.6875)"/>
<path d="M0 0 C3.0625 0.1875 3.0625 0.1875 5.0625 2.1875 C5.43046448 5.05762296 5.43759409 6.59524618 3.875 9.0625 C2.0625 10.1875 2.0625 10.1875 -0.5 10 C-2.9375 9.1875 -2.9375 9.1875 -4.9375 7.1875 C-4.23164336 0.2701049 -4.23164336 0.2701049 0 0 Z " fill="#F7F7FF" transform="translate(237.9375,113.8125)"/>
<path d="M0 0 C3.29714793 0.32971479 4.6226839 0.6226839 7 3 C7.25 5.5 7.25 5.5 7 8 C5 10 5 10 2 10.3125 C1.01 10.209375 0.02 10.10625 -1 10 C-3 7 -3 7 -2.75 4.4375 C-2 2 -2 2 0 0 Z " fill="#FFF5F5" transform="translate(400,57)"/>
<path d="M0 0 C3.29714793 0.32971479 4.6226839 0.6226839 7 3 C7.25 5.5 7.25 5.5 7 8 C5 10 5 10 2 10.3125 C1.01 10.209375 0.02 10.10625 -1 10 C-3 7 -3 7 -2.75 4.4375 C-2 2 -2 2 0 0 Z " fill="#FFF5F5" transform="translate(382,57)"/>
<path d="M0 0 C3.29714793 0.32971479 4.6226839 0.6226839 7 3 C7.25 5.5 7.25 5.5 7 8 C5 10 5 10 2 10.3125 C1.01 10.209375 0.02 10.10625 -1 10 C-3 7 -3 7 -2.75 4.4375 C-2 2 -2 2 0 0 Z " fill="#FFF5F5" transform="translate(364,57)"/>
<path d="M0 0 C0.66 0.33 1.32 0.66 2 1 C1.45144652 5.571279 0.58255197 9.67435795 -1 14 C-1.99 14 -2.98 14 -4 14 C-3.21824485 9.15311808 -1.60155722 4.6233633 0 0 Z " fill="#B3B3F4" transform="translate(318,394)"/>
<path d="M0 0 C4.875 4.625 4.875 4.625 6 8 C4.02 8.33 2.04 8.66 0 9 C0 6.03 0 3.06 0 0 Z " fill="#B1B1F1" transform="translate(184,402)"/>
</svg>
